<?xml version="1.0" encoding="UTF-8"?>
<svg width="250" height="250" version="1.1" viewBox="0 0 66.146 66.146" xmlns="http://www.w3.org/2000/svg" xmlns:cc="http://creativecommons.org/ns#" xmlns:dc="http://purl.org/dc/elements/1.1/" xmlns:rdf="http://www.w3.org/1999/02/22-rdf-syntax-ns#">
 <metadata>
  <rdf:RDF>
   <cc:Work rdf:about="">
    <dc:format>image/svg+xml</dc:format>
    <dc:type rdf:resource="http://purl.org/dc/dcmitype/StillImage"/>
    <dc:title/>
   </cc:Work>
  </rdf:RDF>
 </metadata>
 <g>
  <g fill="#2c8dc0">
   <g transform="matrix(.97602 0 0 .97602 1.3851 .73525)">
    <g transform="matrix(1.2646 0 0 1.2646 -8.8548 -1.2208)" fill="#2c8dc0" style="shape-inside:url(#rect324);white-space:pre" aria-label="Ανάπτυξη">
     <g transform="matrix(1.2851 0 0 1.2851 -2.9641 -2.184)" fill="#2c8dc0" style="shape-inside:url(#rect404);white-space:pre" aria-label="Ανάπτυξη">
      <path d="m13.589 9.6097h-0.86221l-0.5966-1.6958h-2.6316l-0.5966 1.6958h-0.82135l2.2148-6.0845h1.0788zm-1.7081-2.3905-1.0665-2.9871-1.0706 2.9871z"/>
      <path d="m18.399 5.0453-1.847 4.5644h-0.77231l-1.8348-4.5644h0.83361l1.4139 3.6327 1.4016-3.6327z"/>
      <path d="m23.106 9.6097h-0.76823v-0.4781q-0.33099 0.28604-0.69059 0.44541-0.3596 0.15937-0.78049 0.15937-0.81726 0-1.2994-0.62929-0.4781-0.62929-0.4781-1.7449 0-0.58026 0.16345-1.0338 0.16754-0.45358 0.4495-0.77231 0.27787-0.31056 0.64564-0.47401 0.37186-0.16345 0.76823-0.16345 0.3596 0 0.63746 0.089899t0.58434 0.24927v-0.21249h0.76823zm-0.76823-1.1237v-2.5989q-0.31056-0.13893-0.55574-0.20023-0.24518-0.065381-0.53531-0.065381-0.64564 0-1.0052 0.44949-0.3596 0.44949-0.3596 1.2749 0 0.81318 0.27787 1.2382 0.27787 0.42089 0.89082 0.42089 0.3269 0 0.66198-0.14302 0.33508-0.14711 0.62521-0.37594zm-0.65381-5.7249-0.20023 1.5691h-0.59252l-0.20023-1.5691z"/>
      <path d="m28.439 9.6097h-0.76823v-3.9024h-2.2842v3.9024h-0.76823v-4.5644h3.8207z"/>
      <path d="m33.306 5.7195h-1.6509v3.8902h-0.76823v-3.8902h-1.6509v-0.67424h4.07z"/>
      <path d="m37.907 7.9466q0 0.89082-0.49853 1.3403-0.49853 0.44541-1.422 0.44541-0.91125 0-1.4139-0.43724-0.50262-0.44132-0.50262-1.3485v-2.9013h0.76823v2.6193q0 0.38003 0.04086 0.62521t0.17163 0.43315q0.12668 0.17571 0.34325 0.26561 0.22066 0.085813 0.5966 0.085813 0.35142 0 0.58434-0.089899 0.23701-0.089899 0.3596-0.2697 0.1185-0.1798 0.15937-0.42906 0.04495-0.25335 0.04495-0.62112v-2.6193h0.76823z"/>
      <path d="m42.884 10.002q0 0.34734-0.18797 0.69059-0.18388 0.34325-0.45358 0.60069h-0.73554v-0.05721q0.37594-0.32282 0.52714-0.568 0.15528-0.24518 0.15528-0.52305 0-0.22475-0.1185-0.38411-0.1185-0.15937-0.30647-0.15937h-0.57208q-0.57208 0-0.95211-0.11033-0.37594-0.11033-0.63338-0.34325-0.2697-0.24518-0.41272-0.55165-0.13894-0.31056-0.13894-0.67016 0-0.31873 0.10216-0.58843 0.10216-0.2697 0.2983-0.48627 0.1798-0.20023 0.45767-0.33916 0.28196-0.14302 0.59252-0.22066v-0.044949q-0.51079-0.11442-0.81726-0.44949-0.30647-0.33916-0.30647-0.76414 0-0.33916 0.17571-0.61295 0.1798-0.27787 0.54757-0.51488v-0.024518h-0.93168v-0.62929h3.3671v0.64564h-1.0461q-0.27787 0-0.50262 0.061295-0.22066 0.057208-0.4168 0.19614-0.18388 0.13076-0.29422 0.33916-0.11033 0.2084-0.11033 0.48218 0 0.32282 0.13076 0.52305 0.13485 0.20023 0.34325 0.30647 0.18388 0.093985 0.42498 0.13893 0.24109 0.044949 0.568 0.044949h0.69467v0.67424h-1.2055q-0.2697 0-0.48627 0.081726-0.21249 0.081726-0.40454 0.24109-0.17571 0.15119-0.28196 0.36777-0.10216 0.21657-0.10216 0.45767 0 0.4168 0.15119 0.64972 0.15528 0.23292 0.4168 0.33508 0.25744 0.10216 0.568 0.1185 0.31465 0.012259 0.68241 0.012259h0.11442q0.27787 0 0.48627 0.098071 0.21249 0.093985 0.34734 0.24518 0.12668 0.14302 0.19614 0.33916 0.06947 0.19206 0.06947 0.39229z"/>
      <path d="m47.412 11.293h-0.76823v-4.2825q0-0.31465-0.03678-0.58843-0.036774-0.27787-0.13484-0.43315-0.10216-0.17163-0.29422-0.25335-0.19206-0.085813-0.49853-0.085813-0.31465 0-0.6579 0.15528-0.34325 0.15528-0.6579 0.39637v3.408h-0.76823v-4.5644h0.76823v0.5067q0.3596-0.2983 0.74371-0.46584 0.38411-0.16754 0.78866-0.16754 0.73962 0 1.1278 0.44541 0.3882 0.44541 0.3882 1.2831z"/>
     </g>
    </g>
   </g>
   <g stroke-width=".18188" aria-label="Web εφαρμογών">
    <path d="m9.4751 17.039-1.4245 5.2894h-1.5097l-0.94847-3.4458-0.9236 3.4458h-1.5097l-1.4245-5.2894h1.4245l0.81348 3.6411 0.97334-3.6411h1.3605l0.92716 3.6411 0.85256-3.6411z"/>
    <path d="m14.242 20.57h-2.9271q0.02842 0.46891 0.35523 0.71757 0.33037 0.24866 0.96978 0.24866 0.40496 0 0.78506-0.14564t0.60034-0.3126h0.14209v1.0266q-0.43338 0.17406-0.81703 0.25221-0.38365 0.07815-0.849 0.07815-1.2007 0-1.8401-0.53995-0.63942-0.53995-0.63942-1.5382 0-0.98754 0.60389-1.563 0.60745-0.57903 1.6625-0.57903 0.97334 0 1.4636 0.49377 0.49022 0.49022 0.49022 1.4138zm-1.2717-0.74954q-0.01066-0.40141-0.19893-0.60389-0.18827-0.20248-0.58613-0.20248-0.36944 0-0.60745 0.19182t-0.26642 0.61455z"/>
    <path d="m19.308 20.279q0 0.94136-0.52219 1.5346-0.51864 0.59324-1.2966 0.59324-0.33392 0-0.58613-0.07105t-0.47956-0.20603l-0.05329 0.19893h-1.2256v-5.5274h1.2788v1.9538q0.29484-0.23445 0.60034-0.3801 0.30905-0.14564 0.71046-0.14564 0.75664 0 1.1652 0.54706 0.40852 0.5435 0.40852 1.5026zm-1.3179 0.02487q0-0.53285-0.18117-0.82059-0.18117-0.28774-0.64652-0.28774-0.18117 0-0.37299 0.05684-0.19182 0.05328-0.36589 0.1563v2.0035q0.13854 0.04973 0.26287 0.06749t0.29839 0.01776q0.50798 0 0.75664-0.2984 0.24866-0.2984 0.24866-0.89518z"/>
    <path d="m25.759 22.101q-0.3801 0.17051-0.74599 0.24511-0.36589 0.0746-0.7744 0.0746-0.28063 0-0.57192-0.05684t-0.53995-0.19893q-0.24511-0.13854-0.40141-0.36234-0.15275-0.22735-0.15275-0.56127 0-0.34102 0.19893-0.59679 0.20248-0.25577 0.63231-0.39076v-0.02487q-0.32326-0.08526-0.51509-0.31971-0.19182-0.23445-0.19182-0.56127 0-0.31616 0.16696-0.52219 0.17051-0.20959 0.40141-0.33037 0.22735-0.11723 0.51509-0.17406 0.28774-0.05684 0.56837-0.05684 0.34813 0 0.63942 0.06039 0.29129 0.05684 0.611 0.1563v0.73533h-0.04618q-0.23445-0.18117-0.58258-0.28063-0.34458-0.09946-0.69981-0.09946-0.15986 0-0.2984 0.02131-0.13854 0.01776-0.28774 0.08881-0.12433 0.05328-0.21669 0.17406-0.08881 0.11723-0.08881 0.27353 0 0.21669 0.09947 0.33747 0.09946 0.12078 0.26998 0.17406 0.15985 0.04973 0.34458 0.05684 0.18472 0.0036 0.37299 0.0036h0.39431v0.58968h-0.56127q-0.22024 0-0.39786 0.01776-0.17762 0.01421-0.32681 0.0746-0.14564 0.06039-0.23445 0.19182-0.08526 0.13144-0.08526 0.34102 0 0.18827 0.09236 0.31971t0.238 0.20604q0.13144 0.06749 0.30905 0.10302 0.18117 0.03552 0.3801 0.03552 0.36234 0 0.7744-0.12788 0.41207-0.12788 0.66428-0.34813h0.04618z"/>
    <path d="m31.293 20.283q0 0.92005-0.611 1.4813-0.60745 0.56127-1.563 0.61455v1.4138h-0.66428v-1.4138q-0.4618-0.02131-0.85611-0.16341-0.39076-0.14564-0.67849-0.39076-0.30195-0.26287-0.46891-0.611-0.16696-0.34813-0.16696-0.82414 0-0.56482 0.20959-1.0515t0.68204-0.97689h0.81348v0.06039q-0.48312 0.35168-0.74599 0.82414-0.26287 0.47246-0.26287 1.0657 0 0.67139 0.39786 1.0799 0.40141 0.40852 1.0728 0.42983v-3.5523q0.11723-0.0071 0.24866-0.0071 0.13499-0.0036 0.27353-0.0036 1.0799 0 1.698 0.53285 0.62166 0.5293 0.62166 1.492zm-0.6927-0.03552q0-0.65363-0.39786-1.0408-0.39786-0.39076-1.0835-0.39076v3.0053q0.73178-0.03552 1.1048-0.44759 0.37655-0.41207 0.37655-1.1261z"/>
    <path d="m35.538 22.329h-0.66784v-0.41562q-0.28774 0.24866-0.60034 0.3872-0.3126 0.13854-0.67849 0.13854-0.71046 0-1.1296-0.54706-0.41562-0.54706-0.41562-1.5168 0-0.50443 0.14209-0.89874 0.14564-0.39431 0.39076-0.67139 0.24156-0.26998 0.56127-0.41207 0.32326-0.14209 0.66784-0.14209 0.3126 0 0.55416 0.07815 0.24156 0.07815 0.50798 0.21669v-0.18472h0.66784zm-0.66784-0.97689v-2.2593q-0.26998-0.12078-0.48312-0.17406-0.21314-0.05684-0.46535-0.05684-0.56127 0-0.87387 0.39076t-0.3126 1.1083q0 0.70691 0.24156 1.0764 0.24156 0.36589 0.77441 0.36589 0.28418 0 0.57548-0.12433 0.29129-0.12788 0.5435-0.32681z"/>
    <path d="m40.359 20.279q0 0.9165-0.49377 1.5239-0.49022 0.6039-1.2788 0.6039-0.2309 0-0.52219-0.06394-0.28774-0.06394-0.5435-0.21669v1.666h-0.66784v-3.7584q0-0.43694 0.12433-0.76375 0.12788-0.33037 0.36234-0.56482 0.22024-0.22024 0.55061-0.33747 0.33392-0.11723 0.69625-0.11723 0.86321 0 1.3179 0.52219t0.4547 1.5062zm-0.68915 0.04263q0-0.7744-0.28419-1.1367-0.28418-0.36234-0.80282-0.36234-0.56127 0-0.81348 0.34102-0.24866 0.34102-0.24866 0.98754v1.4316q0.25932 0.12078 0.46891 0.17406 0.21314 0.04973 0.47956 0.04973 0.57548 0 0.88808-0.39431 0.3126-0.39431 0.3126-1.0906z"/>
    <path d="m44.739 22.329h-0.66073v-0.41917q-0.26287 0.27708-0.50443 0.3872-0.238 0.10657-0.51509 0.10657-0.26642 0-0.47956-0.09591t-0.51153-0.3801v1.865h-0.66784v-5.4315h0.66784v2.9768q0.11367 0.13854 0.39431 0.28418 0.28063 0.14564 0.60389 0.14564 0.33037 0 0.57192-0.11723 0.24156-0.12078 0.43338-0.33392v-2.9555h0.66784z"/>
    <path d="m49.435 20.346q0 0.96978-0.49732 1.531-0.49732 0.56127-1.3321 0.56127-0.8419 0-1.3392-0.56127-0.49377-0.56127-0.49377-1.531 0-0.96978 0.49377-1.531 0.49732-0.56482 1.3392-0.56482 0.8348 0 1.3321 0.56482 0.49732 0.56127 0.49732 1.531zm-0.68915 0q0-0.77085-0.30195-1.1438-0.30195-0.37655-0.83835-0.37655-0.5435 0-0.84545 0.37655-0.29839 0.37299-0.29839 1.1438 0 0.74599 0.30195 1.1332 0.30195 0.38365 0.8419 0.38365 0.53285 0 0.8348-0.3801 0.3055-0.38365 0.3055-1.1367z"/>
    <path d="m53.9 18.361-1.6234 3.769v1.6625h-0.66784v-1.6625l-1.5808-3.769h0.72467l1.2184 2.9413 1.2291-2.9413z"/>
    <path d="m59.634 20.542q0 0.34102-0.08526 0.6856-0.0817 0.34102-0.26287 0.60745-0.19538 0.28419-0.47601 0.44404-0.27708 0.1563-0.6856 0.1563-0.34102 0-0.62876-0.17406-0.28774-0.17762-0.41917-0.41562h-0.02131q-0.13854 0.24156-0.40141 0.41562-0.26287 0.17406-0.62521 0.17406-0.40141 0-0.6927-0.16341-0.28774-0.16696-0.46891-0.43694-0.18117-0.26998-0.26642-0.60745-0.0817-0.34102-0.0817-0.6856 0-0.60389 0.20248-1.0941 0.20248-0.49377 0.71402-1.087h0.80993v0.06039q-0.47956 0.38365-0.76375 0.93071-0.28063 0.54706-0.28063 1.1971 0 0.23445 0.02842 0.43694 0.02842 0.19893 0.13499 0.42273 0.09236 0.19538 0.25577 0.32681 0.16696 0.12788 0.41917 0.12788 0.18117 0 0.3055-0.04263 0.12788-0.04618 0.19893-0.10657 0.07815-0.06394 0.12788-0.14209 0.05329-0.07815 0.0746-0.13144v-2.0746h0.66073v2.0746q0.03197 0.06039 0.0817 0.13854t0.12433 0.13854q0.08526 0.06749 0.18472 0.10657 0.10302 0.03908 0.30905 0.03908 0.24866 0 0.41562-0.12433 0.16696-0.12788 0.26287-0.33037 0.08881-0.19538 0.12788-0.41207 0.03908-0.21669 0.03908-0.44759 0-0.64652-0.28063-1.1936-0.27708-0.54706-0.76375-0.93426v-0.06039h0.80993q0.51153 0.59324 0.71402 1.087 0.20248 0.49022 0.20248 1.0941zm-2.1243-4.1669-0.17406 1.3641h-0.51509l-0.17406-1.3641z"/>
    <path d="m64.124 18.361-1.6056 3.9679h-0.67139l-1.595-3.9679h0.72467l1.2291 3.158 1.2184-3.158z"/>
   </g>
   <g transform="matrix(.0072057 0 0 -.0072057 -.82243 63.063)">
    <path d="m640 1729c0-9 16-65 35-125s35-115 35-121c0-22-14-14-39 23-33 47-81 101-81 90 0-5 9-24 21-42 11-19 19-34 17-34-3 0-35 29-73 65-95 90-100 86-16-15 25-30 60-71 78-90 51-57 76-91 70-97-3-3-28-1-54 5-143 31-174 35-186 23-8-8-6-11 10-11 12 0 25-4 28-10 4-6-18-10-57-11-63-1-63-1-26-13 50-15 55-24 24-35-21-9-26-17-26-45 0-19-6-37-12-39-10-4-10-6 0-6 7-1 12-14 12-31 0-22-5-30-17-30-17-1-17-1-1-14 16-11 18-31 18-150 0-128-1-136-19-136-13 0-21 8-23 23-3 20-8 22-63 22h-60l-3-63c-3-56-1-64 16-69 12-3 22-16 25-33 4-16 14-30 26-33 17-4 21-13 21-47 0-33 4-43 20-47s20-14 20-44c0-28 5-41 20-49s20-21 20-54c0-38 3-45 25-50 24-6 25-10 25-76v-70h440v74c0 70 1 75 23 78 20 3 22 9 25 76 3 64 5 72 22 72 19 0 20 8 20 170 0 161-1 170-19 170-13 0-21 8-23 23-2 12-13 26-25 32-14 6-23 18-23 32 0 19-5 23-34 23-26 0-35 5-40 23-11 38-20 217-10 217 5-1 45-52 89-114 79-112 110-139 62-54-14 24-37 64-52 90l-26 48 35-15c19-8 39-15 43-15 9 0-28 30-77 62-19 13-35 30-35 38 0 17-4 16 160 27l120 7-139 11-138 10 57 35c116 72 140 101 40 50-32-16-60-28-63-26-2 2 35 50 82 106 47 55 86 103 86 105 0 14-21-4-121-102-61-60-115-109-120-111s-9 16-10 40l-1 43-12-34c-15-43-21-35-76 104-51 128-70 167-70 144zm-110-624c5-219 5-220 28-223 21-3 22-1 22 86 0 115 3 122 49 122 35 0 37 2 50 45 7 25 17 45 22 45s9 6 9 13 10 24 22 37c21 23 22 23 29 2 4-11 11-48 15-81l7-61h-113v-100c0-82 3-102 15-107 24-9 30 3 35 80l5 72h70l3-95c3-93 11-114 39-103 8 3 13 23 13 58 0 29 3 60 6 69 9 23 34 20 34-4 0-13 10-24 25-30l25-10v-164c0-163 0-165-22-168-21-3-23-9-26-74-2-61-6-73-22-77-14-4-20-16-22-48l-3-44h-350l-3 41c-2 31-8 43-22 47-15 4-20 16-22 53-3 44-6 49-25 48-21-1-23 4-23 48 0 41-3 48-20 48s-20 7-20 46c0 37-4 47-19 51-11 3-21 17-24 33-4 16-14 30-26 33-14 3-21 13-21 29 0 35 11 46 50 49 30 3 35 1 38-19 2-12 12-27 22-32 15-8 20-24 22-68 3-49 6-57 23-57 20 0 20 8 23 310 2 329 2 328 52 323l25-3z"/>
    <path d="m5638 1322c-9-4-100-83-203-177-103-93-230-208-282-255l-94-84 3-71 3-70 55-7c30-3 156-6 278-6 123-1 226-2 228-4s5-41 8-87c2-45 6-84 8-86 9-9 149-10 158-1 5 5 10 45 10 87 0 43 4 80 8 83 4 2 39 6 77 7 39 1 76 7 83 12 12 10 17 93 6 121-5 12-21 16-63 17-31 1-67 4-81 8l-25 7-5 246c-3 136-8 250-13 254-10 10-137 15-159 6zm-1-338c9-200 22-187-192-182-96 2-177 7-182 11-4 5 0 15 10 22s44 37 76 66c124 116 146 136 205 186 34 29 64 49 69 44 4-4 10-70 14-147z"/>
    <path d="m1393 1213c-28-54-83-161-123-238s-113-218-162-313c-50-95-88-175-85-178 2-2 40-7 83-11 93-7 90-8 145 101l35 71h478l43-75c23-41 47-81 53-87 16-19 179-18 186 1 3 8-21 66-54 128s-83 158-112 213-74 141-100 190c-26 50-69 130-95 180-25 49-51 95-57 102-7 9-40 13-98 13h-87zm217-244c39-76 70-141 70-144s-67-5-150-5-150 4-150 9c0 21 143 290 152 285 5-3 40-68 78-145z"/>
    <path d="m6277 1295c-10-26-8-789 3-805 7-11 28-15 82-15h73l6 50c4 28 5 148 3 268-2 171 0 217 10 217 7 0 39-24 71-52 79-71 430-392 480-440 46-44 64-51 126-46l44 3v830h-160l-3-274-2-273-43 38c-23 20-74 67-113 103-38 36-95 88-125 115s-94 86-144 132c-198 180-173 163-241 164-45 0-63-4-67-15z"/>
    <path d="m2240 825v-335l26-10c35-14 121-12 130 2 4 6 9 61 11 122s6 117 8 124c3 9 57 12 225 12 253 0 276 5 304 65 15 32 18 57 14 159-7 204 9 196-403 196h-315zm551 198c7-7 14-36 17-66 7-86 4-87-213-87h-184l-3 33c-2 17-1 53 0 79l4 47 76 3c166 6 292 2 303-9z"/>
    <path d="m3170 821v-340l55-6c30-4 66-4 80-1 24 6 25 8 25 99 0 50 3 109 6 130l7 37h226c209 0 228 2 259 20 54 33 65 75 59 215l-5 119-72 66h-640zm553 200c17-17 15-130-3-141-9-6-94-9-200-7l-185 2-3 35c-2 19-1 53 3 77 6 42 6 42 53 45 108 7 324 0 335-11z"/>
    <path d="m4163 1140c-40-24-53-67-53-183 0-104 16-148 62-177 31-18 50-20 259-20 183 0 229-3 238-14 7-9 11-38 9-73l-3-58-214-3c-143-2-218 1-227 9-7 6-14 23-16 37-2 20-8 26-23 24-56-7-91-16-102-25-19-14-16-59 6-110 31-71 60-77 365-76 286 1 311 5 339 61 41 83 30 283-18 328-34 32-87 39-306 40-229 0-232 1-227 75l3 50 206 3 206 2 6-30c6-29 8-30 49-25 89 13 88 12 88 56 0 22-7 53-15 69-29 57-48 60-337 60-243 0-265-2-295-20z"/>
    <path d="m7507 1153c-11-10-8-646 3-663 8-13 59-15 340-18 374-3 347-10 335 83l-6 55h-232c-128 0-242 3-254 6-21 6-23 12-23 74v67l38 7c20 3 85 6 143 6 120 0 120 0 112 73l-6 47h-118c-65 0-129 4-144 10-24 9-26 13-23 67l3 58 500 10 3 63 3 62h-334c-183 0-337-3-340-7z"/>
    <path d="m8320 1106c0-33 5-58 13-63 6-4 73-10 147-13l135-5 3-268 2-268 26-9c34-13 121-13 130 1 3 6 6 105 5 220s1 236 5 269l7 60h137c98 0 140 4 148 13 5 6 8 36 5 65l-6 52h-757z"/>
   </g>
  </g>
  <g transform="matrix(.053882 0 0 .053882 20.054 24.574)">
   <path d="m441.38 8.828h-414.89c-14.628 0-26.492 11.864-26.492 26.491v308.96h512v-308.96c0-14.627-11.864-26.492-26.492-26.492h-44.129z" fill="#e7eced"/>
   <rect x="35.31" y="44.138" width="441.38" height="282.48" fill="#28384c"/>
   <polygon points="324.92 247.17 361.93 210.08 361.93 79.448 114.76 79.448 114.76 247.17" fill="#e7eced"/>
   <path d="m485.51 397.24h-459.02c-14.628 0-26.492-11.864-26.492-26.491v-44.129h512v44.129c0 14.627-11.864 26.491-26.492 26.491z" fill="#afb6bb"/>
   <path d="m282.48 370.76h-52.966c-4.873 0-8.828-3.955-8.828-8.828s3.955-8.828 8.828-8.828h52.966c4.873 0 8.828 3.955 8.828 8.828s-3.955 8.828-8.828 8.828z" fill="#fff"/>
   <path d="m370.76 503.17h-229.52c-9.754 0-17.655-7.901-17.655-17.655s7.901-17.655 17.655-17.655h229.52c9.754 0 17.655 7.901 17.655 17.655 1e-3 9.755-7.9 17.655-17.654 17.655z" fill="#afb6bb"/>
   <path d="m300.14 397.24h-88.276c0 39.036-13.93 70.621-52.966 70.621h194.21c-39.035 0-52.965-31.585-52.965-70.621z" fill="#6c797a"/>
   <path d="m406.75 266.35-26.721-26.721c-0.459-0.459-0.459-1.201 0-1.66l17.267-17.276-88.276-26.483 26.483 88.276 16.825-16.825c1.05-1.05 2.754-1.05 3.814 0l25.644 25.653z" fill="#7383bf"/>
   <rect x="114.76" y="79.448" width="247.17" height="44.138" fill="#556080"/>
   <rect x="150.07" y="176.55" width="70.621" height="35.31" fill="#dd352e"/>
  </g>
  <g fill="#2c8dc0" stroke-width=".062307" aria-label="Πτολεμαϊδα">
   <path d="m3.1676 62.962v1.8169h-0.24582v-1.61h-0.89322v1.61h-0.24582v-1.8169z"/>
   <path d="m4.3152 64.53q0.043809 0.05841 0.17524 0.05841h0.10831v0.18984h-0.13508q-0.21905 0-0.31883-0.11682-0.099787-0.11926-0.099787-0.37724v-0.64497h-0.51111v-0.22391h1.2571v0.22391h-0.51719v0.65835q0 0.17645 0.041375 0.23243z"/>
   <path d="m5.6757 63.573q-0.1801 0-0.28476 0.14116-0.10466 0.13995-0.10466 0.38455 0 0.2446 0.10344 0.38576 0.10466 0.13994 0.28598 0.13994 0.17889 0 0.28354-0.14116 0.10466-0.14116 0.10466-0.38455 0-0.24217-0.10466-0.38333-0.10466-0.14238-0.28354-0.14238zm0-0.18984q0.29206 0 0.45878 0.18984 0.16672 0.18984 0.16672 0.52571 0 0.33465-0.16672 0.52571-0.16672 0.18984-0.45878 0.18984-0.29328 0-0.46-0.18984-0.1655-0.19106-0.1655-0.52571 0-0.33587 0.1655-0.52571 0.16672-0.18984 0.46-0.18984z"/>
   <path d="m7.209 63.098 0.62915 1.6806h-0.2373l-0.38211-1.0076-0.46973 1.0076h-0.2373l0.59751-1.307-0.090052-0.24095q-0.057195-0.15333-0.18741-0.15333h-0.11682v-0.19227l0.14238 0.0024q0.27502 0.0037 0.35169 0.21053z"/>
   <path d="m8.3931 64.044q-0.13629-0.02921-0.20931-0.10831-0.073015-0.07788-0.073015-0.19106 0-0.17159 0.13873-0.26772 0.13751-0.09492 0.37603-0.09492 0.092486 0 0.19592 0.0146 0.10344 0.0146 0.2227 0.04381v0.20323q-0.11804-0.03529-0.21539-0.05111-0.09857-0.01582-0.18497-0.01582-0.14481 0-0.22878 0.05598-0.085184 0.05598-0.085184 0.13386 0 0.08518 0.08275 0.13994 0.081534 0.05354 0.2227 0.05354h0.18862v0.18497h-0.1801q-0.16672 0-0.25434 0.06206-0.09492 0.06815-0.09492 0.17524 0 0.10952 0.10222 0.17767 0.10344 0.06815 0.28719 0.06815 0.11317 0 0.21661-0.0219 0.10344-0.02312 0.18984-0.06815v0.20809q-0.10952 0.03407-0.21174 0.05111-0.10344 0.01704-0.20079 0.01704-0.28963 0-0.44661-0.11074-0.15698-0.11074-0.15698-0.32127 0-0.13143 0.083967-0.22026 0.083967-0.08884 0.23487-0.11804z"/>
   <path d="m9.4712 65.297v-1.8814h0.22391v0.84698q0 0.17645 0.083967 0.2665 0.083967 0.09005 0.24825 0.09005 0.1801 0 0.27016-0.10222 0.09127-0.10222 0.09127-0.30666v-0.79465h0.22391v1.049q0 0.07301 0.02069 0.10831 0.0219 0.03407 0.06693 0.03407 0.01095 0 0.03042-0.0061 0.01947-0.0073 0.05354-0.0219v0.1801q-0.04989 0.02799-0.09492 0.04138-0.04381 0.01339-0.0864 0.01339-0.08397 0-0.13386-0.04746-0.04989-0.04746-0.06815-0.14481-0.06085 0.09614-0.14968 0.14481-0.08762 0.04746-0.20688 0.04746-0.12413 0-0.21174-0.04746-0.086401-0.04746-0.13751-0.14238v0.67296z"/>
   <path d="m11.875 64.145-0.05354-0.28111q-0.05476-0.28841-0.27137-0.28841-0.16307 0-0.2373 0.13386-0.0937 0.16794-0.0937 0.38941 0 0.26772 0.09127 0.3955 0.09249 0.13021 0.23973 0.13021 0.16307 0 0.25068-0.2592zm0.12534-0.37238 0.12048-0.35656h0.19958l-0.24947 0.73867 0.04868 0.2665q0.01095 0.05963 0.05354 0.10952 0.04989 0.05841 0.08883 0.05841h0.10709v0.18984h-0.13386q-0.11439 0-0.21661-0.10222-0.04989-0.05111-0.07058-0.1582-0.05598 0.13508-0.17037 0.24095-0.05355 0.04989-0.22756 0.04989-0.28598 0-0.4247-0.18497-0.14238-0.19106-0.14238-0.52571 0-0.35777 0.15455-0.52571 0.17159-0.1874 0.41254-0.1874 0.37846 0 0.45026 0.38698z"/>
   <path d="m12.938 63.416v0.88227q0 0.17645 0.04138 0.23243 0.04381 0.05841 0.17524 0.05841h0.1083v0.18984h-0.13508q-0.21904 0-0.31883-0.11682-0.09979-0.11926-0.09979-0.37724l-0.0012-0.86888zm0.03164-0.52571h0.24704v0.24582h-0.24704zm-0.47582 0h0.24703v0.24582h-0.24703z"/>
   <path d="m14.553 63.2q-0.12412-0.08518-0.41497-0.08518-0.30788 0-0.30788 0.14238 0 0.11196 0.32127 0.17037 0.25312 0.04503 0.3955 0.18132 0.1728 0.16428 0.1728 0.50137 0 0.32248-0.16672 0.51232-0.16672 0.19106-0.45878 0.19106-0.29084 0-0.45878-0.19106-0.16672-0.18984-0.16672-0.52449 0-0.24825 0.16672-0.44904 0.0645-0.07788 0.15576-0.12169-0.18984-0.09614-0.18984-0.26772 0-0.331 0.53666-0.331 0.26894 0 0.41497 0.08518zm-0.59386 0.3882q-0.08275 0.03529-0.14968 0.12413-0.10466 0.13751-0.10466 0.38576 0 0.24704 0.10344 0.38576 0.10466 0.13994 0.28598 0.13994 0.17889 0 0.28354-0.14116 0.10466-0.14116 0.10466-0.37238 0-0.24217-0.11074-0.35899-0.11804-0.12534-0.27137-0.13873-0.07788-0.0073-0.14116-0.02434z"/>
   <path d="m15.886 64.145-0.05354-0.28111q-0.05476-0.28841-0.27137-0.28841-0.16307 0-0.2373 0.13386-0.0937 0.16794-0.0937 0.38941 0 0.26772 0.09127 0.3955 0.09249 0.13021 0.23973 0.13021 0.16307 0 0.25069-0.2592zm0.12534-0.37238 0.12048-0.35656h0.19958l-0.24947 0.73867 0.04868 0.2665q0.01095 0.05963 0.05354 0.10952 0.04989 0.05841 0.08884 0.05841h0.10709v0.18984h-0.13386q-0.11439 0-0.21661-0.10222-0.04989-0.05111-0.07058-0.1582-0.05598 0.13508-0.17037 0.24095-0.05354 0.04989-0.22756 0.04989-0.28598 0-0.4247-0.18497-0.14238-0.19106-0.14238-0.52571 0-0.35777 0.15455-0.52571 0.17158-0.1874 0.41254-0.1874 0.37846 0 0.45026 0.38698z"/>
  </g>
  <g fill="#2c8dc0" stroke-width=".1148" aria-label="https://apps4net.eu">
   <path d="m22.038 63.237v1.5157h-0.41257v-1.5023q0-0.35651-0.13902-0.53365-0.13902-0.17714-0.41705-0.17714-0.33409 0-0.52692 0.21301-0.19283 0.21301-0.19283 0.58073v1.4193h-0.41481v-3.4889h0.41481v1.3678q0.14799-0.22646 0.34754-0.33858 0.2018-0.11211 0.46414-0.11211 0.43275 0 0.65473 0.26907 0.22198 0.26682 0.22198 0.78702z"/>
   <path d="m23.269 61.528v0.71302h0.8498v0.32064h-0.8498v1.3633q0 0.30718 0.08296 0.39463 0.0852 0.08745 0.34306 0.08745h0.42378v0.3453h-0.42378q-0.47759 0-0.65921-0.17714-0.18162-0.17938-0.18162-0.65024v-1.3633h-0.3027v-0.32064h0.3027v-0.71302z"/>
   <path d="m25.07 61.528v0.71302h0.8498v0.32064h-0.8498v1.3633q0 0.30718 0.08296 0.39463 0.0852 0.08745 0.34306 0.08745h0.42378v0.3453h-0.42378q-0.47759 0-0.65921-0.17714-0.18162-0.17938-0.18162-0.65024v-1.3633h-0.3027v-0.32064h0.3027v-0.71302z"/>
   <path d="m26.861 64.376v1.3319h-0.41481v-3.4665h0.41481v0.38118q0.13005-0.22422 0.32736-0.33185 0.19956-0.10987 0.47535-0.10987 0.45741 0 0.74217 0.36324 0.287 0.36324 0.287 0.95518t-0.287 0.95518q-0.28476 0.36324-0.74217 0.36324-0.27579 0-0.47535-0.10763-0.19732-0.10987-0.32736-0.33409zm1.4036-0.87671q0-0.45517-0.18835-0.71302-0.1861-0.2601-0.51347-0.2601-0.32736 0-0.51571 0.2601-0.1861 0.25786-0.1861 0.71302t0.1861 0.71527q0.18835 0.25786 0.51571 0.25786 0.32736 0 0.51347-0.25786 0.18835-0.2601 0.18835-0.71527z"/>
   <path d="m30.978 62.315v0.39015q-0.17489-0.08969-0.36324-0.13453-0.18835-0.04484-0.39015-0.04484-0.30718 0-0.4619 0.09417-0.15247 0.09417-0.15247 0.28252 0 0.1435 0.10987 0.22646 0.10987 0.08072 0.44172 0.15471l0.14126 0.03139q0.43947 0.09417 0.62334 0.26682 0.1861 0.17041 0.1861 0.47759 0 0.34979-0.27804 0.55383-0.27579 0.20404-0.76011 0.20404-0.2018 0-0.42154-0.04036-0.2175-0.03812-0.45966-0.1166v-0.42602q0.22871 0.11884 0.45069 0.17938 0.22198 0.0583 0.43947 0.0583 0.29149 0 0.44844-0.09866 0.15696-0.1009 0.15696-0.28252 0-0.16817-0.11435-0.25786-0.11211-0.08969-0.49553-0.17265l-0.1435-0.03363q-0.38342-0.08072-0.55383-0.24664-0.17041-0.16817-0.17041-0.45965 0-0.35427 0.25113-0.5471 0.25113-0.19283 0.71302-0.19283 0.22871 0 0.43051 0.03363 0.2018 0.03363 0.37221 0.1009z"/>
   <path d="m31.875 64.183h0.47311v0.56952h-0.47311zm0-1.805h0.47311v0.56952h-0.47311z"/>
   <path d="m34.05 61.405h0.38118l-1.166 3.7737h-0.38118z"/>
   <path d="m35.597 61.405h0.38118l-1.166 3.7737h-0.38118z"/>
   <path d="m37.552 63.49q-0.50001 0-0.69284 0.11435t-0.19283 0.39015q0 0.21974 0.1435 0.34979 0.14574 0.12781 0.39463 0.12781 0.34306 0 0.54934-0.24216 0.20853-0.2444 0.20853-0.648v-0.09193zm0.82289-0.17041v1.4328h-0.41257v-0.38118q-0.14126 0.22871-0.35203 0.33858-0.21077 0.10763-0.51571 0.10763-0.38566 0-0.61437-0.21525-0.22646-0.2175-0.22646-0.58074 0-0.42378 0.28252-0.63903 0.28476-0.21525 0.84756-0.21525h0.57849v-0.04036q0-0.28476-0.18835-0.43948-0.1861-0.15696-0.52468-0.15696-0.21525 0-0.4193 0.05157t-0.39239 0.15471v-0.38118q0.22646-0.08745 0.43948-0.13005 0.21301-0.04484 0.41481-0.04484 0.54486 0 0.81392 0.28252 0.26907 0.28252 0.26907 0.85653z"/>
   <path d="m39.624 64.376v1.3319h-0.41481v-3.4665h0.41481v0.38118q0.13005-0.22422 0.32736-0.33185 0.19956-0.10987 0.47535-0.10987 0.45741 0 0.74217 0.36324 0.287 0.36324 0.287 0.95518t-0.287 0.95518q-0.28476 0.36324-0.74217 0.36324-0.27579 0-0.47535-0.10763-0.19732-0.10987-0.32736-0.33409zm1.4036-0.87671q0-0.45517-0.18835-0.71302-0.1861-0.2601-0.51347-0.2601t-0.51571 0.2601q-0.1861 0.25786-0.1861 0.71302t0.1861 0.71527q0.18835 0.25786 0.51571 0.25786t0.51347-0.25786q0.18835-0.2601 0.18835-0.71527z"/>
   <path d="m42.539 64.376v1.3319h-0.41481v-3.4665h0.41481v0.38118q0.13005-0.22422 0.32736-0.33185 0.19956-0.10987 0.47535-0.10987 0.45741 0 0.74217 0.36324 0.287 0.36324 0.287 0.95518t-0.287 0.95518q-0.28476 0.36324-0.74217 0.36324-0.27579 0-0.47535-0.10763-0.19732-0.10987-0.32736-0.33409zm1.4036-0.87671q0-0.45517-0.18835-0.71302-0.1861-0.2601-0.51347-0.2601-0.32736 0-0.51571 0.2601-0.1861 0.25786-0.1861 0.71302t0.1861 0.71527q0.18835 0.25786 0.51571 0.25786 0.32736 0 0.51347-0.25786 0.18835-0.2601 0.18835-0.71527z"/>
   <path d="m46.656 62.315v0.39015q-0.17489-0.08969-0.36324-0.13453-0.18835-0.04484-0.39015-0.04484-0.30718 0-0.4619 0.09417-0.15247 0.09417-0.15247 0.28252 0 0.1435 0.10987 0.22646 0.10987 0.08072 0.44172 0.15471l0.14126 0.03139q0.43948 0.09417 0.62334 0.26682 0.1861 0.17041 0.1861 0.47759 0 0.34979-0.27804 0.55383-0.27579 0.20404-0.76011 0.20404-0.2018 0-0.42154-0.04036-0.2175-0.03812-0.45966-0.1166v-0.42602q0.22871 0.11884 0.45069 0.17938 0.22198 0.0583 0.43947 0.0583 0.29149 0 0.44844-0.09866 0.15696-0.1009 0.15696-0.28252 0-0.16817-0.11435-0.25786-0.11211-0.08969-0.49553-0.17265l-0.1435-0.03363q-0.38342-0.08072-0.55383-0.24664-0.17041-0.16817-0.17041-0.45965 0-0.35427 0.25113-0.5471t0.71302-0.19283q0.22871 0 0.43051 0.03363 0.2018 0.03363 0.37221 0.1009z"/>
   <path d="m48.75 61.799-1.1435 1.787h1.1435zm-0.11884-0.39463h0.56952v2.1817h0.47759v0.37669h-0.47759v0.78926h-0.45068v-0.78926h-1.5113v-0.43723z"/>
   <path d="m52.456 63.237v1.5157h-0.41257v-1.5023q0-0.35651-0.13902-0.53365t-0.41705-0.17714q-0.33409 0-0.52692 0.21301-0.19283 0.21301-0.19283 0.58073v1.4193h-0.41481v-2.5113h0.41481v0.39015q0.14799-0.22646 0.34754-0.33858 0.2018-0.11211 0.46414-0.11211 0.43275 0 0.65473 0.26907 0.22198 0.26682 0.22198 0.78702z"/>
   <path d="m55.427 63.394v0.2018h-1.8969q0.02691 0.42602 0.25561 0.65024 0.23095 0.22198 0.64127 0.22198 0.23768 0 0.45965-0.0583 0.22422-0.0583 0.44396-0.17489v0.39015q-0.22198 0.09417-0.45517 0.1435-0.23319 0.04933-0.47311 0.04933-0.60091 0-0.95294-0.34978-0.34978-0.34979-0.34978-0.94622 0-0.61661 0.33185-0.97761 0.33409-0.36324 0.89913-0.36324 0.50674 0 0.80047 0.32736 0.29597 0.32512 0.29597 0.88568zm-0.41257-0.12108q-0.0045-0.33858-0.19059-0.54037-0.18386-0.2018-0.4888-0.2018-0.3453 0-0.55383 0.19507-0.20628 0.19507-0.23768 0.54934z"/>
   <path d="m56.512 61.528v0.71302h0.8498v0.32064h-0.8498v1.3633q0 0.30718 0.08296 0.39463 0.0852 0.08745 0.34306 0.08745h0.42378v0.3453h-0.42378q-0.47759 0-0.65921-0.17714-0.18162-0.17938-0.18162-0.65024v-1.3633h-0.3027v-0.32064h0.3027v-0.71302z"/>
   <path d="m57.963 64.183h0.47311v0.56952h-0.47311z"/>
   <path d="m61.512 63.394v0.2018h-1.8969q0.02691 0.42602 0.25561 0.65024 0.23095 0.22198 0.64127 0.22198 0.23768 0 0.45965-0.0583 0.22422-0.0583 0.44396-0.17489v0.39015q-0.22198 0.09417-0.45517 0.1435-0.23319 0.04933-0.47311 0.04933-0.60091 0-0.95294-0.34978-0.34979-0.34979-0.34979-0.94622 0-0.61661 0.33185-0.97761 0.33409-0.36324 0.89913-0.36324 0.50674 0 0.80047 0.32736 0.29597 0.32512 0.29597 0.88568zm-0.41257-0.12108q-0.0045-0.33858-0.19059-0.54037-0.18386-0.2018-0.4888-0.2018-0.3453 0-0.55383 0.19507-0.20628 0.19507-0.23768 0.54934z"/>
   <path d="m62.147 63.761v-1.5202h0.41257v1.5045q0 0.35651 0.13902 0.53589 0.13902 0.17714 0.41705 0.17714 0.33409 0 0.52692-0.21301 0.19507-0.21301 0.19507-0.58073v-1.4238h0.41257v2.5113h-0.41257v-0.38566q-0.15023 0.22871-0.34979 0.34082-0.19732 0.10987-0.45966 0.10987-0.43275 0-0.65697-0.26907-0.22422-0.26907-0.22422-0.78702z"/>
  </g>
 </g>
</svg>
