<?xml version="1.0" standalone="no"?>
<!DOCTYPE svg PUBLIC "-//W3C//DTD SVG 20010904//EN"
 "http://www.w3.org/TR/2001/REC-SVG-20010904/DTD/svg10.dtd">
<svg version="1.0" xmlns="http://www.w3.org/2000/svg"
 width="940.000000pt" height="198.000000pt" viewBox="0 0 940.000000 198.000000"
 preserveAspectRatio="xMidYMid meet">
<metadata>
Created by potrace 1.16, written by Peter Selinger 2001-2019
</metadata>
<g transform="translate(0.000000,198.000000) scale(0.100000,-0.100000)"
fill="#000000" stroke="none">
<path d="M640 1729 c0 -9 16 -65 35 -125 19 -60 35 -115 35 -121 0 -22 -14
-14 -39 23 -33 47 -81 101 -81 90 0 -5 9 -24 21 -42 11 -19 19 -34 17 -34 -3
0 -35 29 -73 65 -95 90 -100 86 -16 -15 25 -30 60 -71 78 -90 51 -57 76 -91
70 -97 -3 -3 -28 -1 -54 5 -143 31 -174 35 -186 23 -8 -8 -6 -11 10 -11 12 0
25 -4 28 -10 4 -6 -18 -10 -57 -11 -63 -1 -63 -1 -26 -13 50 -15 55 -24 24
-35 -21 -9 -26 -17 -26 -45 0 -19 -6 -37 -12 -39 -10 -4 -10 -6 0 -6 7 -1 12
-14 12 -31 0 -22 -5 -30 -17 -30 -17 -1 -17 -1 -1 -14 16 -11 18 -31 18 -150
0 -128 -1 -136 -19 -136 -13 0 -21 8 -23 23 -3 20 -8 22 -63 22 l-60 0 -3 -63
c-3 -56 -1 -64 16 -69 12 -3 22 -16 25 -33 4 -16 14 -30 26 -33 17 -4 21 -13
21 -47 0 -33 4 -43 20 -47 16 -4 20 -14 20 -44 0 -28 5 -41 20 -49 15 -8 20
-21 20 -54 0 -38 3 -45 25 -50 24 -6 25 -10 25 -76 l0 -70 220 0 220 0 0 74
c0 70 1 75 23 78 20 3 22 9 25 76 3 64 5 72 22 72 19 0 20 8 20 170 0 161 -1
170 -19 170 -13 0 -21 8 -23 23 -2 12 -13 26 -25 32 -14 6 -23 18 -23 32 0 19
-5 23 -34 23 -26 0 -35 5 -40 23 -11 38 -20 217 -10 217 5 -1 45 -52 89 -114
79 -112 110 -139 62 -54 -14 24 -37 64 -52 90 l-26 48 35 -15 c19 -8 39 -15
43 -15 9 0 -28 30 -77 62 -19 13 -35 30 -35 38 0 17 -4 16 160 27 l120 7 -139
11 -138 10 57 35 c116 72 140 101 40 50 -32 -16 -60 -28 -63 -26 -2 2 35 50
82 106 47 55 86 103 86 105 0 14 -21 -4 -121 -102 -61 -60 -115 -109 -120
-111 -5 -2 -9 16 -10 40 l-1 43 -12 -34 c-15 -43 -21 -35 -76 104 -51 128 -70
167 -70 144z m-110 -624 c5 -219 5 -220 28 -223 21 -3 22 -1 22 86 0 115 3
122 49 122 35 0 37 2 50 45 7 25 17 45 22 45 5 0 9 6 9 13 0 7 10 24 22 37 21
23 22 23 29 2 4 -11 11 -48 15 -81 l7 -61 -57 0 -56 0 0 -100 c0 -82 3 -102
15 -107 24 -9 30 3 35 80 l5 72 35 0 35 0 3 -95 c3 -93 11 -114 39 -103 8 3
13 23 13 58 0 29 3 60 6 69 9 23 34 20 34 -4 0 -13 10 -24 25 -30 l25 -10 0
-164 c0 -163 0 -165 -22 -168 -21 -3 -23 -9 -26 -74 -2 -61 -6 -73 -22 -77
-14 -4 -20 -16 -22 -48 l-3 -44 -175 0 -175 0 -3 41 c-2 31 -8 43 -22 47 -15
4 -20 16 -22 53 -3 44 -6 49 -25 48 -21 -1 -23 4 -23 48 0 41 -3 48 -20 48
-17 0 -20 7 -20 46 0 37 -4 47 -19 51 -11 3 -21 17 -24 33 -4 16 -14 30 -26
33 -14 3 -21 13 -21 29 0 35 11 46 50 49 30 3 35 1 38 -19 2 -12 12 -27 22
-32 15 -8 20 -24 22 -68 3 -49 6 -57 23 -57 20 0 20 8 23 310 2 329 2 328 52
323 l25 -3 5 -220z"/>
<path d="M5638 1322 c-9 -4 -100 -83 -203 -177 -103 -93 -230 -208 -282 -255
l-94 -84 3 -71 3 -70 55 -7 c30 -3 156 -6 278 -6 123 -1 226 -2 228 -4 2 -2 5
-41 8 -87 2 -45 6 -84 8 -86 9 -9 149 -10 158 -1 5 5 10 45 10 87 0 43 4 80 8
83 4 2 39 6 77 7 39 1 76 7 83 12 12 10 17 93 6 121 -5 12 -21 16 -63 17 -31
1 -67 4 -81 8 l-25 7 -5 246 c-3 136 -8 250 -13 254 -10 10 -137 15 -159 6z
m-1 -338 c9 -200 22 -187 -192 -182 -96 2 -177 7 -182 11 -4 5 0 15 10 22 10
7 44 37 76 66 124 116 146 136 205 186 34 29 64 49 69 44 4 -4 10 -70 14 -147z"/>
<path d="M1393 1213 c-28 -54 -83 -161 -123 -238 -40 -77 -113 -218 -162 -313
-50 -95 -88 -175 -85 -178 2 -2 40 -7 83 -11 93 -7 90 -8 145 101 l35 71 239
0 239 0 43 -75 c23 -41 47 -81 53 -87 16 -19 179 -18 186 1 3 8 -21 66 -54
128 -33 62 -83 158 -112 213 -29 55 -74 141 -100 190 -26 50 -69 130 -95 180
-25 49 -51 95 -57 102 -7 9 -40 13 -98 13 l-87 0 -50 -97z m217 -244 c39 -76
70 -141 70 -144 0 -3 -67 -5 -150 -5 -83 0 -150 4 -150 9 0 21 143 290 152
285 5 -3 40 -68 78 -145z"/>
<path d="M6277 1295 c-10 -26 -8 -789 3 -805 7 -11 28 -15 82 -15 l73 0 6 50
c4 28 5 148 3 268 -2 171 0 217 10 217 7 0 39 -24 71 -52 79 -71 430 -392 480
-440 46 -44 64 -51 126 -46 l44 3 0 415 0 415 -80 0 -80 0 -3 -274 -2 -273
-43 38 c-23 20 -74 67 -113 103 -38 36 -95 88 -125 115 -30 27 -94 86 -144
132 -198 180 -173 163 -241 164 -45 0 -63 -4 -67 -15z"/>
<path d="M2240 825 l0 -335 26 -10 c35 -14 121 -12 130 2 4 6 9 61 11 122 2
61 6 117 8 124 3 9 57 12 225 12 253 0 276 5 304 65 15 32 18 57 14 159 -7
204 9 196 -403 196 l-315 0 0 -335z m551 198 c7 -7 14 -36 17 -66 7 -86 4 -87
-213 -87 l-184 0 -3 33 c-2 17 -1 53 0 79 l4 47 76 3 c166 6 292 2 303 -9z"/>
<path d="M3170 821 l0 -340 55 -6 c30 -4 66 -4 80 -1 24 6 25 8 25 99 0 50 3
109 6 130 l7 37 226 0 c209 0 228 2 259 20 54 33 65 75 59 215 l-5 119 -36 33
-36 33 -320 0 -320 0 0 -339z m553 200 c17 -17 15 -130 -3 -141 -9 -6 -94 -9
-200 -7 l-185 2 -3 35 c-2 19 -1 53 3 77 6 42 6 42 53 45 108 7 324 0 335 -11z"/>
<path d="M4163 1140 c-40 -24 -53 -67 -53 -183 0 -104 16 -148 62 -177 31 -18
50 -20 259 -20 183 0 229 -3 238 -14 7 -9 11 -38 9 -73 l-3 -58 -214 -3 c-143
-2 -218 1 -227 9 -7 6 -14 23 -16 37 -2 20 -8 26 -23 24 -56 -7 -91 -16 -102
-25 -19 -14 -16 -59 6 -110 31 -71 60 -77 365 -76 286 1 311 5 339 61 41 83
30 283 -18 328 -34 32 -87 39 -306 40 -229 0 -232 1 -227 75 l3 50 206 3 206
2 6 -30 c6 -29 8 -30 49 -25 89 13 88 12 88 56 0 22 -7 53 -15 69 -29 57 -48
60 -337 60 -243 0 -265 -2 -295 -20z"/>
<path d="M7507 1153 c-11 -10 -8 -646 3 -663 8 -13 59 -15 340 -18 374 -3 347
-10 335 83 l-6 55 -232 0 c-128 0 -242 3 -254 6 -21 6 -23 12 -23 74 l0 67 38
7 c20 3 85 6 143 6 120 0 120 0 112 73 l-6 47 -118 0 c-65 0 -129 4 -144 10
-24 9 -26 13 -23 67 l3 58 250 5 250 5 3 63 3 62 -334 0 c-183 0 -337 -3 -340
-7z"/>
<path d="M8320 1106 c0 -33 5 -58 13 -63 6 -4 73 -10 147 -13 l135 -5 3 -268
2 -268 26 -9 c34 -13 121 -13 130 1 3 6 6 105 5 220 -1 115 1 236 5 269 l7 60
137 0 c98 0 140 4 148 13 5 6 8 36 5 65 l-6 52 -378 0 -379 0 0 -54z"/>
</g>
</svg>
