<?xml version="1.0" encoding="UTF-8"?>
<svg width="728" height="90" version="1.1" viewBox="0 0 192.62 23.813" xmlns="http://www.w3.org/2000/svg" xmlns:cc="http://creativecommons.org/ns#" xmlns:dc="http://purl.org/dc/elements/1.1/" xmlns:rdf="http://www.w3.org/1999/02/22-rdf-syntax-ns#">
 <metadata>
  <rdf:RDF>
   <cc:Work rdf:about="">
    <dc:format>image/svg+xml</dc:format>
    <dc:type rdf:resource="http://purl.org/dc/dcmitype/StillImage"/>
    <dc:title/>
   </cc:Work>
  </rdf:RDF>
 </metadata>
 <g transform="matrix(.94463 0 0 .94463 32.121 -.68075)" fill="#2c8dc0">
  <g transform="matrix(1.2646 0 0 1.2646 -8.8548 -1.2208)" fill="#2c8dc0" font-family="sans-serif" font-size="8.3688px" style="line-height:1.25;shape-inside:url(#rect324);white-space:pre" aria-label="Ανάπτυξη">
   <text style="line-height:1.25;shape-inside:url(#rect392);white-space:pre" xml:space="preserve"/>
   <text transform="matrix(1.1335 0 0 1.1335 -1.2127 -1.0724)" style="line-height:1.25;shape-inside:url(#rect404);white-space:pre" xml:space="preserve"><tspan x="7.9746094" y="9.6096916"><tspan fill="#2c8dc0" font-family="Verdana">Ανάπτυξη </tspan><tspan font-weight="bold">Web</tspan><tspan fill="#2c8dc0" font-family="Verdana"> </tspan><tspan fill="#2c8dc0" font-family="Verdana">εφαρμογών</tspan></tspan></text>
  </g>
 </g>
 <g transform="matrix(.0080584 0 0 -.0080584 31.557 25.713)" fill="#2c8dc0">
  <path d="m640 1729c0-9 16-65 35-125s35-115 35-121c0-22-14-14-39 23-33 47-81 101-81 90 0-5 9-24 21-42 11-19 19-34 17-34-3 0-35 29-73 65-95 90-100 86-16-15 25-30 60-71 78-90 51-57 76-91 70-97-3-3-28-1-54 5-143 31-174 35-186 23-8-8-6-11 10-11 12 0 25-4 28-10 4-6-18-10-57-11-63-1-63-1-26-13 50-15 55-24 24-35-21-9-26-17-26-45 0-19-6-37-12-39-10-4-10-6 0-6 7-1 12-14 12-31 0-22-5-30-17-30-17-1-17-1-1-14 16-11 18-31 18-150 0-128-1-136-19-136-13 0-21 8-23 23-3 20-8 22-63 22h-60l-3-63c-3-56-1-64 16-69 12-3 22-16 25-33 4-16 14-30 26-33 17-4 21-13 21-47 0-33 4-43 20-47s20-14 20-44c0-28 5-41 20-49s20-21 20-54c0-38 3-45 25-50 24-6 25-10 25-76v-70h440v74c0 70 1 75 23 78 20 3 22 9 25 76 3 64 5 72 22 72 19 0 20 8 20 170 0 161-1 170-19 170-13 0-21 8-23 23-2 12-13 26-25 32-14 6-23 18-23 32 0 19-5 23-34 23-26 0-35 5-40 23-11 38-20 217-10 217 5-1 45-52 89-114 79-112 110-139 62-54-14 24-37 64-52 90l-26 48 35-15c19-8 39-15 43-15 9 0-28 30-77 62-19 13-35 30-35 38 0 17-4 16 160 27l120 7-139 11-138 10 57 35c116 72 140 101 40 50-32-16-60-28-63-26-2 2 35 50 82 106 47 55 86 103 86 105 0 14-21-4-121-102-61-60-115-109-120-111s-9 16-10 40l-1 43-12-34c-15-43-21-35-76 104-51 128-70 167-70 144zm-110-624c5-219 5-220 28-223 21-3 22-1 22 86 0 115 3 122 49 122 35 0 37 2 50 45 7 25 17 45 22 45s9 6 9 13 10 24 22 37c21 23 22 23 29 2 4-11 11-48 15-81l7-61h-113v-100c0-82 3-102 15-107 24-9 30 3 35 80l5 72h70l3-95c3-93 11-114 39-103 8 3 13 23 13 58 0 29 3 60 6 69 9 23 34 20 34-4 0-13 10-24 25-30l25-10v-164c0-163 0-165-22-168-21-3-23-9-26-74-2-61-6-73-22-77-14-4-20-16-22-48l-3-44h-350l-3 41c-2 31-8 43-22 47-15 4-20 16-22 53-3 44-6 49-25 48-21-1-23 4-23 48 0 41-3 48-20 48s-20 7-20 46c0 37-4 47-19 51-11 3-21 17-24 33-4 16-14 30-26 33-14 3-21 13-21 29 0 35 11 46 50 49 30 3 35 1 38-19 2-12 12-27 22-32 15-8 20-24 22-68 3-49 6-57 23-57 20 0 20 8 23 310 2 329 2 328 52 323l25-3z"/>
  <path d="m5638 1322c-9-4-100-83-203-177-103-93-230-208-282-255l-94-84 3-71 3-70 55-7c30-3 156-6 278-6 123-1 226-2 228-4s5-41 8-87c2-45 6-84 8-86 9-9 149-10 158-1 5 5 10 45 10 87 0 43 4 80 8 83 4 2 39 6 77 7 39 1 76 7 83 12 12 10 17 93 6 121-5 12-21 16-63 17-31 1-67 4-81 8l-25 7-5 246c-3 136-8 250-13 254-10 10-137 15-159 6zm-1-338c9-200 22-187-192-182-96 2-177 7-182 11-4 5 0 15 10 22s44 37 76 66c124 116 146 136 205 186 34 29 64 49 69 44 4-4 10-70 14-147z"/>
  <path d="m1393 1213c-28-54-83-161-123-238s-113-218-162-313c-50-95-88-175-85-178 2-2 40-7 83-11 93-7 90-8 145 101l35 71h478l43-75c23-41 47-81 53-87 16-19 179-18 186 1 3 8-21 66-54 128s-83 158-112 213-74 141-100 190c-26 50-69 130-95 180-25 49-51 95-57 102-7 9-40 13-98 13h-87zm217-244c39-76 70-141 70-144s-67-5-150-5-150 4-150 9c0 21 143 290 152 285 5-3 40-68 78-145z"/>
  <path d="m6277 1295c-10-26-8-789 3-805 7-11 28-15 82-15h73l6 50c4 28 5 148 3 268-2 171 0 217 10 217 7 0 39-24 71-52 79-71 430-392 480-440 46-44 64-51 126-46l44 3v830h-160l-3-274-2-273-43 38c-23 20-74 67-113 103-38 36-95 88-125 115s-94 86-144 132c-198 180-173 163-241 164-45 0-63-4-67-15z"/>
  <path d="m2240 825v-335l26-10c35-14 121-12 130 2 4 6 9 61 11 122s6 117 8 124c3 9 57 12 225 12 253 0 276 5 304 65 15 32 18 57 14 159-7 204 9 196-403 196h-315zm551 198c7-7 14-36 17-66 7-86 4-87-213-87h-184l-3 33c-2 17-1 53 0 79l4 47 76 3c166 6 292 2 303-9z"/>
  <path d="m3170 821v-340l55-6c30-4 66-4 80-1 24 6 25 8 25 99 0 50 3 109 6 130l7 37h226c209 0 228 2 259 20 54 33 65 75 59 215l-5 119-72 66h-640zm553 200c17-17 15-130-3-141-9-6-94-9-200-7l-185 2-3 35c-2 19-1 53 3 77 6 42 6 42 53 45 108 7 324 0 335-11z"/>
  <path d="m4163 1140c-40-24-53-67-53-183 0-104 16-148 62-177 31-18 50-20 259-20 183 0 229-3 238-14 7-9 11-38 9-73l-3-58-214-3c-143-2-218 1-227 9-7 6-14 23-16 37-2 20-8 26-23 24-56-7-91-16-102-25-19-14-16-59 6-110 31-71 60-77 365-76 286 1 311 5 339 61 41 83 30 283-18 328-34 32-87 39-306 40-229 0-232 1-227 75l3 50 206 3 206 2 6-30c6-29 8-30 49-25 89 13 88 12 88 56 0 22-7 53-15 69-29 57-48 60-337 60-243 0-265-2-295-20z"/>
  <path d="m7507 1153c-11-10-8-646 3-663 8-13 59-15 340-18 374-3 347-10 335 83l-6 55h-232c-128 0-242 3-254 6-21 6-23 12-23 74v67l38 7c20 3 85 6 143 6 120 0 120 0 112 73l-6 47h-118c-65 0-129 4-144 10-24 9-26 13-23 67l3 58 500 10 3 63 3 62h-334c-183 0-337-3-340-7z"/>
  <path d="m8320 1106c0-33 5-58 13-63 6-4 73-10 147-13l135-5 3-268 2-268 26-9c34-13 121-13 130 1 3 6 6 105 5 220s1 236 5 269l7 60h137c98 0 140 4 148 13 5 6 8 36 5 65l-6 52h-757z"/>
 </g>
 <g transform="matrix(.0337 0 0 .0337 8.1484 .99809)">
  <path d="m441.38 8.828h-414.89c-14.628 0-26.492 11.864-26.492 26.491v308.96h512v-308.96c0-14.627-11.864-26.492-26.492-26.492h-44.129z" fill="#e7eced"/>
  <rect x="35.31" y="44.138" width="441.38" height="282.48" fill="#28384c"/>
  <polygon points="114.76 247.17 324.92 247.17 361.93 210.08 361.93 79.448 114.76 79.448" fill="#e7eced"/>
  <path d="m485.51 397.24h-459.02c-14.628 0-26.492-11.864-26.492-26.491v-44.129h512v44.129c0 14.627-11.864 26.491-26.492 26.491z" fill="#afb6bb"/>
  <path d="m282.48 370.76h-52.966c-4.873 0-8.828-3.955-8.828-8.828s3.955-8.828 8.828-8.828h52.966c4.873 0 8.828 3.955 8.828 8.828s-3.955 8.828-8.828 8.828z" fill="#fff"/>
  <path d="m370.76 503.17h-229.52c-9.754 0-17.655-7.901-17.655-17.655s7.901-17.655 17.655-17.655h229.52c9.754 0 17.655 7.901 17.655 17.655 1e-3 9.755-7.9 17.655-17.654 17.655z" fill="#afb6bb"/>
  <path d="m300.14 397.24h-88.276c0 39.036-13.93 70.621-52.966 70.621h194.21c-39.035 0-52.965-31.585-52.965-70.621z" fill="#6c797a"/>
  <path d="m406.75 266.35-26.721-26.721c-0.459-0.459-0.459-1.201 0-1.66l17.267-17.276-88.276-26.483 26.483 88.276 16.825-16.825c1.05-1.05 2.754-1.05 3.814 0l25.644 25.653z" fill="#7383bf"/>
  <rect x="114.76" y="79.448" width="247.17" height="44.138" fill="#556080"/>
  <rect x="150.07" y="176.55" width="70.621" height="35.31" fill="#dd352e"/>
 </g>
 <g font-family="sans-serif">
  <text x="4.4520407" y="22.373714" fill="#2c8dc0" font-size="4.2761px" stroke-width=".1069" style="line-height:1.25" xml:space="preserve"><tspan x="4.4520407" y="22.373714" fill="#2c8dc0" stroke-width=".1069">Πτολεμαϊδα</tspan></text>
  <text x="117.57895" y="21.664783" fill="#2c8dc0" font-size="7.2632px" stroke-width=".18158" style="line-height:1.25" xml:space="preserve"><tspan x="117.57895" y="21.664783" fill="#2c8dc0" stroke-width=".18158">https://apps4net.eu</tspan></text>
  <text fill="black" font-size="10.583px" style="line-height:1.25;shape-inside:url(#rect67);white-space:pre" xml:space="preserve"/>
 </g>
</svg>
