<?xml version="1.0" encoding="UTF-8"?>
<svg width="728" height="90" version="1.1" viewBox="0 0 192.62 23.813" xmlns="http://www.w3.org/2000/svg" xmlns:cc="http://creativecommons.org/ns#" xmlns:dc="http://purl.org/dc/elements/1.1/" xmlns:rdf="http://www.w3.org/1999/02/22-rdf-syntax-ns#">
 <metadata>
  <rdf:RDF>
   <cc:Work rdf:about="">
    <dc:format>image/svg+xml</dc:format>
    <dc:type rdf:resource="http://purl.org/dc/dcmitype/StillImage"/>
    <dc:title/>
   </cc:Work>
  </rdf:RDF>
 </metadata>
 <g transform="matrix(.94463 0 0 .94463 32.121 -.68075)" fill="#2c8dc0">
  <g transform="matrix(1.2646 0 0 1.2646 -8.8548 -1.2208)" fill="#2c8dc0" style="shape-inside:url(#rect324);white-space:pre" aria-label="Ανάπτυξη">
   <g transform="matrix(1.1335 0 0 1.1335 -1.2127 -1.0724)" fill="#2c8dc0" style="shape-inside:url(#rect404);white-space:pre" aria-label="Ανάπτυξη Web εφαρμογών">
    <g fill="#2c8dc0">
     <path d="m13.589 9.6097h-0.86221l-0.5966-1.6958h-2.6316l-0.5966 1.6958h-0.82135l2.2148-6.0845h1.0788zm-1.7081-2.3905-1.0665-2.9871-1.0706 2.9871z"/>
     <path d="m18.399 5.0453-1.847 4.5644h-0.77231l-1.8348-4.5644h0.83361l1.4139 3.6327 1.4016-3.6327z"/>
     <path d="m23.106 9.6097h-0.76823v-0.4781q-0.33099 0.28604-0.69059 0.44541-0.3596 0.15937-0.78049 0.15937-0.81726 0-1.2994-0.62929-0.4781-0.62929-0.4781-1.7449 0-0.58026 0.16345-1.0338 0.16754-0.45358 0.4495-0.77231 0.27787-0.31056 0.64564-0.47401 0.37186-0.16345 0.76823-0.16345 0.3596 0 0.63746 0.089899t0.58434 0.24927v-0.21249h0.76823zm-0.76823-1.1237v-2.5989q-0.31056-0.13893-0.55574-0.20023-0.24518-0.065381-0.53531-0.065381-0.64564 0-1.0052 0.44949-0.3596 0.44949-0.3596 1.2749 0 0.81318 0.27787 1.2382 0.27787 0.42089 0.89082 0.42089 0.3269 0 0.66198-0.14302 0.33508-0.14711 0.62521-0.37594zm-0.65381-5.7249-0.20023 1.5691h-0.59252l-0.20023-1.5691z"/>
     <path d="m28.439 9.6097h-0.76823v-3.9024h-2.2842v3.9024h-0.76823v-4.5644h3.8207z"/>
     <path d="m33.306 5.7195h-1.6509v3.8902h-0.76823v-3.8902h-1.6509v-0.67424h4.07z"/>
     <path d="m37.907 7.9466q0 0.89082-0.49853 1.3403-0.49853 0.44541-1.422 0.44541-0.91125 0-1.4139-0.43724-0.50262-0.44132-0.50262-1.3485v-2.9013h0.76823v2.6193q0 0.38003 0.04086 0.62521t0.17163 0.43315q0.12668 0.17571 0.34325 0.26561 0.22066 0.085813 0.5966 0.085813 0.35142 0 0.58434-0.089899 0.23701-0.089899 0.3596-0.2697 0.1185-0.1798 0.15937-0.42906 0.04495-0.25335 0.04495-0.62112v-2.6193h0.76823z"/>
     <path d="m42.884 10.002q0 0.34734-0.18797 0.69059-0.18388 0.34325-0.45358 0.60069h-0.73554v-0.05721q0.37594-0.32282 0.52714-0.568 0.15528-0.24518 0.15528-0.52305 0-0.22475-0.1185-0.38411-0.1185-0.15937-0.30647-0.15937h-0.57208q-0.57208 0-0.95211-0.11033-0.37594-0.11033-0.63338-0.34325-0.2697-0.24518-0.41272-0.55165-0.13894-0.31056-0.13894-0.67016 0-0.31873 0.10216-0.58843 0.10216-0.2697 0.2983-0.48627 0.1798-0.20023 0.45767-0.33916 0.28196-0.14302 0.59252-0.22066v-0.044949q-0.51079-0.11442-0.81726-0.44949-0.30647-0.33916-0.30647-0.76414 0-0.33916 0.17571-0.61295 0.1798-0.27787 0.54757-0.51488v-0.024518h-0.93168v-0.62929h3.3671v0.64564h-1.0461q-0.27787 0-0.50262 0.061295-0.22066 0.057208-0.4168 0.19614-0.18388 0.13076-0.29422 0.33916-0.11033 0.2084-0.11033 0.48218 0 0.32282 0.13076 0.52305 0.13485 0.20023 0.34325 0.30647 0.18388 0.093985 0.42498 0.13893 0.24109 0.044949 0.568 0.044949h0.69467v0.67424h-1.2055q-0.2697 0-0.48627 0.081726-0.21249 0.081726-0.40454 0.24109-0.17571 0.15119-0.28196 0.36777-0.10216 0.21657-0.10216 0.45767 0 0.4168 0.15119 0.64972 0.15528 0.23292 0.4168 0.33508 0.25744 0.10216 0.568 0.1185 0.31465 0.012259 0.68241 0.012259h0.11442q0.27787 0 0.48627 0.098071 0.21249 0.093985 0.34734 0.24518 0.12668 0.14302 0.19614 0.33916 0.06947 0.19206 0.06947 0.39229z"/>
     <path d="m47.412 11.293h-0.76823v-4.2825q0-0.31465-0.03678-0.58843-0.036774-0.27787-0.13484-0.43315-0.10216-0.17163-0.29422-0.25335-0.19206-0.085813-0.49853-0.085813-0.31465 0-0.6579 0.15528-0.34325 0.15528-0.6579 0.39637v3.408h-0.76823v-4.5644h0.76823v0.5067q0.3596-0.2983 0.74371-0.46584 0.38411-0.16754 0.78866-0.16754 0.73962 0 1.1278 0.44541 0.3882 0.44541 0.3882 1.2831z"/>
    </g>
    <path d="m51.326 3.5088h1.5078l1.0543 4.4336 1.0461-4.4336h1.516l1.0461 4.4336 1.0543-4.4336h1.4956l-1.4384 6.1009h-1.8143l-1.1074-4.638-1.0951 4.638h-1.8143z"/>
    <path d="m65.281 7.3091v0.4168h-3.4202q0.05312 0.51488 0.37185 0.77231 0.31873 0.25744 0.89082 0.25744 0.46175 0 0.94394-0.13485 0.48627-0.13893 0.99706-0.4168v1.1278q-0.51896 0.19614-1.0379 0.29421-0.51896 0.10216-1.0379 0.10216-1.2422 0-1.9328-0.62929-0.6865-0.63338-0.6865-1.7735 0-1.1196 0.67424-1.7612 0.67833-0.64155 1.8634-0.64155 1.0788 0 1.7244 0.64972 0.64972 0.64972 0.64972 1.7367zm-1.5038-0.48627q0-0.4168-0.24518-0.67016-0.24109-0.25744-0.63338-0.25744-0.42498 0-0.69059 0.24109-0.26561 0.23701-0.33099 0.6865z"/>
    <path d="m68.824 8.6658q0.46993 0 0.7151-0.34325 0.24926-0.34325 0.24926-0.99706t-0.24926-0.99706q-0.24518-0.34325-0.7151-0.34325t-0.72328 0.34734q-0.24926 0.34325-0.24926 0.99297t0.24926 0.99706q0.25335 0.34325 0.72328 0.34325zm-0.97254-2.9626q0.30239-0.40046 0.67016-0.58843 0.36777-0.19206 0.84587-0.19206 0.84587 0 1.3893 0.67424 0.54348 0.67016 0.54348 1.7285t-0.54348 1.7326q-0.54348 0.67016-1.3893 0.67016-0.4781 0-0.84587-0.18797-0.36777-0.19206-0.67016-0.59252v0.66198h-1.4629v-6.3583h1.4629z"/>
    <g fill="#2c8dc0">
     <path d="m78.729 9.3482q-0.43724 0.19614-0.85813 0.28196-0.42089 0.085813-0.89082 0.085813-0.32282 0-0.6579-0.065381-0.33508-0.065381-0.62112-0.22883-0.28196-0.15937-0.46175-0.4168-0.17571-0.26152-0.17571-0.64564 0-0.39229 0.22883-0.6865 0.23292-0.29421 0.72736-0.44949v-0.028604q-0.37185-0.098072-0.59252-0.36777t-0.22066-0.64564q0-0.36368 0.19206-0.60069 0.19614-0.24109 0.46175-0.38003 0.26152-0.13485 0.59252-0.20023 0.33099-0.065381 0.65381-0.065381 0.40046 0 0.73554 0.069467 0.33508 0.065381 0.70285 0.1798v0.84587h-0.05312q-0.2697-0.2084-0.67016-0.32282-0.39637-0.11442-0.805-0.11442-0.18388 0-0.34325 0.024518-0.15937 0.020432-0.33099 0.10216-0.14302 0.061295-0.24926 0.20023-0.10216 0.13485-0.10216 0.31465 0 0.24927 0.11442 0.3882 0.11442 0.13893 0.31056 0.20023 0.18388 0.057208 0.39637 0.065381 0.21249 0.00409 0.42906 0.00409h0.45358v0.67833h-0.64564q-0.25335 0-0.45767 0.020432-0.20432 0.016345-0.37594 0.085812-0.16754 0.069467-0.2697 0.22066-0.09807 0.15119-0.09807 0.39229 0 0.21657 0.10624 0.36777t0.27378 0.23701q0.15119 0.07764 0.35551 0.1185 0.2084 0.040863 0.43724 0.040863 0.4168 0 0.89082-0.14711 0.47401-0.14711 0.76414-0.40046h0.05312z"/>
     <path d="m85.096 7.256q0 1.0584-0.70285 1.704-0.69876 0.64564-1.798 0.70693v1.6264h-0.76414v-1.6264q-0.53122-0.024518-0.9848-0.18797-0.4495-0.16754-0.78049-0.44949-0.34734-0.30239-0.53939-0.70285-0.19206-0.40046-0.19206-0.94802 0-0.64972 0.24109-1.2095 0.24109-0.55982 0.78457-1.1237h0.93576v0.069467q-0.55574 0.40454-0.85813 0.94802-0.30239 0.54348-0.30239 1.2259 0 0.77231 0.45767 1.2422 0.46175 0.46993 1.2341 0.49444v-4.0863q0.13485-0.00817 0.28604-0.00817 0.15528-0.00409 0.31465-0.00409 1.2422 0 1.9533 0.61295 0.7151 0.60886 0.7151 1.7163zm-0.79683-0.040863q0-0.75188-0.45767-1.1973-0.45767-0.44949-1.2463-0.44949v3.457q0.84178-0.040863 1.2708-0.51488 0.43315-0.47401 0.43315-1.2954z"/>
     <path d="m89.979 9.6097h-0.76823v-0.4781q-0.33099 0.28604-0.69059 0.44541-0.3596 0.15937-0.78048 0.15937-0.81726 0-1.2994-0.62929-0.4781-0.62929-0.4781-1.7449 0-0.58026 0.16345-1.0338 0.16754-0.45358 0.44949-0.77231 0.27787-0.31056 0.64564-0.47401 0.37185-0.16345 0.76823-0.16345 0.3596 0 0.63746 0.089899 0.27787 0.089899 0.58434 0.24927v-0.21249h0.76823zm-0.76823-1.1237v-2.5989q-0.31056-0.13893-0.55574-0.20023-0.24518-0.065381-0.53531-0.065381-0.64564 0-1.0052 0.44949-0.3596 0.44949-0.3596 1.2749 0 0.81318 0.27787 1.2382 0.27787 0.42089 0.89082 0.42089 0.3269 0 0.66198-0.14302 0.33508-0.14711 0.62521-0.37594z"/>
     <path d="m95.524 7.2519q0 1.0543-0.568 1.753-0.56391 0.69467-1.4711 0.69467-0.26561 0-0.60069-0.073554-0.33099-0.073553-0.6252-0.24926v1.9165h-0.76823v-4.3233q0-0.50262 0.14302-0.87856 0.14711-0.38003 0.4168-0.64972 0.25335-0.25335 0.63338-0.3882 0.38411-0.13485 0.80092-0.13485 0.99297 0 1.516 0.60069 0.52305 0.60069 0.52305 1.7326zm-0.79274 0.049036q0-0.89082-0.3269-1.3076-0.3269-0.4168-0.92351-0.4168-0.64564 0-0.93577 0.39229-0.28604 0.39229-0.28604 1.136v1.6468q0.2983 0.13893 0.53939 0.20023 0.24518 0.057208 0.55165 0.057208 0.66198 0 1.0216-0.45358 0.3596-0.45358 0.3596-1.2545z"/>
     <path d="m100.56 9.6097h-0.76006v-0.48218q-0.30239 0.31873-0.58026 0.44541-0.27378 0.12259-0.59252 0.12259-0.30647 0-0.55165-0.11033-0.24518-0.11033-0.58843-0.43724v2.1453h-0.76823v-6.248h0.76823v3.4243q0.13076 0.15937 0.45358 0.32691 0.32282 0.16754 0.69467 0.16754 0.38003 0 0.6579-0.13485 0.27787-0.13893 0.49853-0.38411v-3.3998h0.76823z"/>
     <path d="m105.96 7.3295q0 1.1156-0.57209 1.7612-0.57208 0.64564-1.5324 0.64564-0.96845 0-1.5405-0.64564-0.56799-0.64564-0.56799-1.7612t0.56799-1.7612q0.57209-0.64972 1.5405-0.64972 0.96029 0 1.5324 0.64972 0.57209 0.64564 0.57209 1.7612zm-0.79275 0q0-0.88673-0.34734-1.3158-0.34733-0.43315-0.96437-0.43315-0.6252 0-0.97254 0.43315-0.34325 0.42906-0.34325 1.3158 0 0.85813 0.34734 1.3035 0.34734 0.44132 0.96845 0.44132 0.61295 0 0.96029-0.43724 0.35142-0.44132 0.35142-1.3076z"/>
     <path d="m111.1 5.0453-1.8674 4.3356v1.9124h-0.76822v-1.9124l-1.8184-4.3356h0.83361l1.4016 3.3835 1.4139-3.3835z"/>
     <path d="m117.7 7.5543q0 0.39229-0.0981 0.78866-0.094 0.39229-0.30239 0.69876-0.22475 0.32691-0.54756 0.51079-0.31874 0.1798-0.78866 0.1798-0.39229 0-0.72328-0.20023-0.33099-0.20432-0.48218-0.4781h-0.0245q-0.15937 0.27787-0.46176 0.4781-0.30238 0.20023-0.71919 0.20023-0.46175 0-0.79683-0.18797-0.33099-0.19206-0.53939-0.50262t-0.30648-0.69876q-0.094-0.39229-0.094-0.78866 0-0.69467 0.23292-1.2586 0.23292-0.568 0.82135-1.2504h0.93168v0.069467q-0.55165 0.44132-0.87856 1.0706-0.32282 0.62929-0.32282 1.3771 0 0.2697 0.0327 0.50262 0.0327 0.22883 0.15528 0.48627 0.10625 0.22475 0.29422 0.37594 0.19205 0.14711 0.48218 0.14711 0.2084 0 0.35142-0.049036 0.14711-0.053122 0.22884-0.12259 0.0899-0.073554 0.14711-0.16345 0.0613-0.089899 0.0858-0.15119v-2.3864h0.76005v2.3864q0.0368 0.069467 0.094 0.15937 0.0572 0.089899 0.14302 0.15937 0.0981 0.07764 0.21249 0.12259 0.1185 0.044949 0.35551 0.044949 0.28604 0 0.47809-0.14302 0.19206-0.14711 0.30239-0.38003 0.10216-0.22475 0.14711-0.47401 0.045-0.24927 0.045-0.51488 0-0.74371-0.32282-1.373-0.31873-0.62929-0.87856-1.0747v-0.069467h0.93168q0.58843 0.68241 0.82135 1.2504 0.23292 0.56391 0.23292 1.2586zm-2.4436-4.7932-0.20023 1.5691h-0.59252l-0.20023-1.5691z"/>
     <path d="m122.86 5.0453-1.847 4.5644h-0.77231l-1.8348-4.5644h0.83361l1.4139 3.6327 1.4016-3.6327z"/>
    </g>
   </g>
  </g>
 </g>
 <g transform="matrix(.0080584 0 0 -.0080584 31.557 25.713)" fill="#2c8dc0">
  <path d="m640 1729c0-9 16-65 35-125s35-115 35-121c0-22-14-14-39 23-33 47-81 101-81 90 0-5 9-24 21-42 11-19 19-34 17-34-3 0-35 29-73 65-95 90-100 86-16-15 25-30 60-71 78-90 51-57 76-91 70-97-3-3-28-1-54 5-143 31-174 35-186 23-8-8-6-11 10-11 12 0 25-4 28-10 4-6-18-10-57-11-63-1-63-1-26-13 50-15 55-24 24-35-21-9-26-17-26-45 0-19-6-37-12-39-10-4-10-6 0-6 7-1 12-14 12-31 0-22-5-30-17-30-17-1-17-1-1-14 16-11 18-31 18-150 0-128-1-136-19-136-13 0-21 8-23 23-3 20-8 22-63 22h-60l-3-63c-3-56-1-64 16-69 12-3 22-16 25-33 4-16 14-30 26-33 17-4 21-13 21-47 0-33 4-43 20-47s20-14 20-44c0-28 5-41 20-49s20-21 20-54c0-38 3-45 25-50 24-6 25-10 25-76v-70h440v74c0 70 1 75 23 78 20 3 22 9 25 76 3 64 5 72 22 72 19 0 20 8 20 170 0 161-1 170-19 170-13 0-21 8-23 23-2 12-13 26-25 32-14 6-23 18-23 32 0 19-5 23-34 23-26 0-35 5-40 23-11 38-20 217-10 217 5-1 45-52 89-114 79-112 110-139 62-54-14 24-37 64-52 90l-26 48 35-15c19-8 39-15 43-15 9 0-28 30-77 62-19 13-35 30-35 38 0 17-4 16 160 27l120 7-139 11-138 10 57 35c116 72 140 101 40 50-32-16-60-28-63-26-2 2 35 50 82 106 47 55 86 103 86 105 0 14-21-4-121-102-61-60-115-109-120-111s-9 16-10 40l-1 43-12-34c-15-43-21-35-76 104-51 128-70 167-70 144zm-110-624c5-219 5-220 28-223 21-3 22-1 22 86 0 115 3 122 49 122 35 0 37 2 50 45 7 25 17 45 22 45s9 6 9 13 10 24 22 37c21 23 22 23 29 2 4-11 11-48 15-81l7-61h-113v-100c0-82 3-102 15-107 24-9 30 3 35 80l5 72h70l3-95c3-93 11-114 39-103 8 3 13 23 13 58 0 29 3 60 6 69 9 23 34 20 34-4 0-13 10-24 25-30l25-10v-164c0-163 0-165-22-168-21-3-23-9-26-74-2-61-6-73-22-77-14-4-20-16-22-48l-3-44h-350l-3 41c-2 31-8 43-22 47-15 4-20 16-22 53-3 44-6 49-25 48-21-1-23 4-23 48 0 41-3 48-20 48s-20 7-20 46c0 37-4 47-19 51-11 3-21 17-24 33-4 16-14 30-26 33-14 3-21 13-21 29 0 35 11 46 50 49 30 3 35 1 38-19 2-12 12-27 22-32 15-8 20-24 22-68 3-49 6-57 23-57 20 0 20 8 23 310 2 329 2 328 52 323l25-3z"/>
  <path d="m5638 1322c-9-4-100-83-203-177-103-93-230-208-282-255l-94-84 3-71 3-70 55-7c30-3 156-6 278-6 123-1 226-2 228-4s5-41 8-87c2-45 6-84 8-86 9-9 149-10 158-1 5 5 10 45 10 87 0 43 4 80 8 83 4 2 39 6 77 7 39 1 76 7 83 12 12 10 17 93 6 121-5 12-21 16-63 17-31 1-67 4-81 8l-25 7-5 246c-3 136-8 250-13 254-10 10-137 15-159 6zm-1-338c9-200 22-187-192-182-96 2-177 7-182 11-4 5 0 15 10 22s44 37 76 66c124 116 146 136 205 186 34 29 64 49 69 44 4-4 10-70 14-147z"/>
  <path d="m1393 1213c-28-54-83-161-123-238s-113-218-162-313c-50-95-88-175-85-178 2-2 40-7 83-11 93-7 90-8 145 101l35 71h478l43-75c23-41 47-81 53-87 16-19 179-18 186 1 3 8-21 66-54 128s-83 158-112 213-74 141-100 190c-26 50-69 130-95 180-25 49-51 95-57 102-7 9-40 13-98 13h-87zm217-244c39-76 70-141 70-144s-67-5-150-5-150 4-150 9c0 21 143 290 152 285 5-3 40-68 78-145z"/>
  <path d="m6277 1295c-10-26-8-789 3-805 7-11 28-15 82-15h73l6 50c4 28 5 148 3 268-2 171 0 217 10 217 7 0 39-24 71-52 79-71 430-392 480-440 46-44 64-51 126-46l44 3v830h-160l-3-274-2-273-43 38c-23 20-74 67-113 103-38 36-95 88-125 115s-94 86-144 132c-198 180-173 163-241 164-45 0-63-4-67-15z"/>
  <path d="m2240 825v-335l26-10c35-14 121-12 130 2 4 6 9 61 11 122s6 117 8 124c3 9 57 12 225 12 253 0 276 5 304 65 15 32 18 57 14 159-7 204 9 196-403 196h-315zm551 198c7-7 14-36 17-66 7-86 4-87-213-87h-184l-3 33c-2 17-1 53 0 79l4 47 76 3c166 6 292 2 303-9z"/>
  <path d="m3170 821v-340l55-6c30-4 66-4 80-1 24 6 25 8 25 99 0 50 3 109 6 130l7 37h226c209 0 228 2 259 20 54 33 65 75 59 215l-5 119-72 66h-640zm553 200c17-17 15-130-3-141-9-6-94-9-200-7l-185 2-3 35c-2 19-1 53 3 77 6 42 6 42 53 45 108 7 324 0 335-11z"/>
  <path d="m4163 1140c-40-24-53-67-53-183 0-104 16-148 62-177 31-18 50-20 259-20 183 0 229-3 238-14 7-9 11-38 9-73l-3-58-214-3c-143-2-218 1-227 9-7 6-14 23-16 37-2 20-8 26-23 24-56-7-91-16-102-25-19-14-16-59 6-110 31-71 60-77 365-76 286 1 311 5 339 61 41 83 30 283-18 328-34 32-87 39-306 40-229 0-232 1-227 75l3 50 206 3 206 2 6-30c6-29 8-30 49-25 89 13 88 12 88 56 0 22-7 53-15 69-29 57-48 60-337 60-243 0-265-2-295-20z"/>
  <path d="m7507 1153c-11-10-8-646 3-663 8-13 59-15 340-18 374-3 347-10 335 83l-6 55h-232c-128 0-242 3-254 6-21 6-23 12-23 74v67l38 7c20 3 85 6 143 6 120 0 120 0 112 73l-6 47h-118c-65 0-129 4-144 10-24 9-26 13-23 67l3 58 500 10 3 63 3 62h-334c-183 0-337-3-340-7z"/>
  <path d="m8320 1106c0-33 5-58 13-63 6-4 73-10 147-13l135-5 3-268 2-268 26-9c34-13 121-13 130 1 3 6 6 105 5 220s1 236 5 269l7 60h137c98 0 140 4 148 13 5 6 8 36 5 65l-6 52h-757z"/>
 </g>
 <g transform="matrix(.0337 0 0 .0337 8.1484 .99809)">
  <path d="m441.38 8.828h-414.89c-14.628 0-26.492 11.864-26.492 26.491v308.96h512v-308.96c0-14.627-11.864-26.492-26.492-26.492h-44.129z" fill="#e7eced"/>
  <rect x="35.31" y="44.138" width="441.38" height="282.48" fill="#28384c"/>
  <polygon points="114.76 247.17 324.92 247.17 361.93 210.08 361.93 79.448 114.76 79.448" fill="#e7eced"/>
  <path d="m485.51 397.24h-459.02c-14.628 0-26.492-11.864-26.492-26.491v-44.129h512v44.129c0 14.627-11.864 26.491-26.492 26.491z" fill="#afb6bb"/>
  <path d="m282.48 370.76h-52.966c-4.873 0-8.828-3.955-8.828-8.828s3.955-8.828 8.828-8.828h52.966c4.873 0 8.828 3.955 8.828 8.828s-3.955 8.828-8.828 8.828z" fill="#fff"/>
  <path d="m370.76 503.17h-229.52c-9.754 0-17.655-7.901-17.655-17.655s7.901-17.655 17.655-17.655h229.52c9.754 0 17.655 7.901 17.655 17.655 1e-3 9.755-7.9 17.655-17.654 17.655z" fill="#afb6bb"/>
  <path d="m300.14 397.24h-88.276c0 39.036-13.93 70.621-52.966 70.621h194.21c-39.035 0-52.965-31.585-52.965-70.621z" fill="#6c797a"/>
  <path d="m406.75 266.35-26.721-26.721c-0.459-0.459-0.459-1.201 0-1.66l17.267-17.276-88.276-26.483 26.483 88.276 16.825-16.825c1.05-1.05 2.754-1.05 3.814 0l25.644 25.653z" fill="#7383bf"/>
  <rect x="114.76" y="79.448" width="247.17" height="44.138" fill="#556080"/>
  <rect x="150.07" y="176.55" width="70.621" height="35.31" fill="#dd352e"/>
 </g>
 <g>
  <g fill="#2c8dc0" stroke-width=".1069" aria-label="Πτολεμαϊδα">
   <path d="m7.2478 19.256v3.1173h-0.42176v-2.7623h-1.5325v2.7623h-0.42176v-3.1173z"/>
   <path d="m9.2167 21.948q0.075166 0.10022 0.30066 0.10022h0.18583v0.32572h-0.23176q-0.37583 0-0.54704-0.20044-0.17121-0.20462-0.17121-0.64726v-1.1066h-0.87693v-0.38418h2.1568v0.38418h-0.88737v1.1296q0 0.30275 0.07099 0.3988z"/>
   <path d="m11.551 20.305q-0.30902 0-0.48858 0.2422-0.17956 0.24011-0.17956 0.65979t0.17747 0.66188q0.17956 0.24011 0.49067 0.24011 0.30693 0 0.48649-0.2422t0.17956-0.65979q0-0.4155-0.17956-0.6577-0.17956-0.24429-0.48649-0.24429zm0-0.32572q0.50111 0 0.78715 0.32572 0.28605 0.32572 0.28605 0.90199 0 0.57418-0.28605 0.90199-0.28605 0.32572-0.78715 0.32572-0.50319 0-0.78924-0.32572-0.28396-0.32781-0.28396-0.90199 0-0.57627 0.28396-0.90199 0.28605-0.32572 0.78924-0.32572z"/>
   <path d="m14.182 19.49 1.0795 2.8834h-0.40715l-0.65561-1.7288-0.80594 1.7288h-0.40715l1.0252-2.2424-0.15451-0.41341q-0.09813-0.26308-0.32154-0.26308h-0.20044v-0.32989l0.24429 0.0042q0.47187 0.0063 0.60341 0.36121z"/>
   <path d="m16.213 21.113q-0.23385-0.05011-0.35912-0.18583-0.12528-0.13363-0.12528-0.32781 0-0.2944 0.23802-0.45935 0.23594-0.16286 0.64517-0.16286 0.15868 0 0.33616 0.02506 0.17748 0.02505 0.38209 0.07517v0.34869q-0.20253-0.06055-0.36956-0.08769-0.16912-0.02714-0.31737-0.02714-0.24846 0-0.39253 0.09605-0.14616 0.09605-0.14616 0.22967 0 0.14616 0.14198 0.24011 0.13989 0.09187 0.38209 0.09187h0.32363v0.31737h-0.30902q-0.28605 0-0.43638 0.10648-0.16286 0.11692-0.16286 0.30066 0 0.18792 0.17539 0.30484 0.17748 0.11692 0.49275 0.11692 0.19418 0 0.37165-0.03758 0.17748-0.03967 0.32572-0.11692v0.35704q-0.18792 0.05846-0.3633 0.08769-0.17748 0.02923-0.34451 0.02923-0.49693 0-0.76627-0.19-0.26934-0.19-0.26934-0.55122 0-0.2255 0.14407-0.37792 0.14407-0.15242 0.40297-0.20253z"/>
   <path d="m18.063 23.263v-3.228h0.38418v1.4532q0 0.30275 0.14407 0.45726 0.14407 0.15451 0.42594 0.15451 0.30902 0 0.46352-0.17539 0.1566-0.17539 0.1566-0.52616v-1.3634h0.38418v1.7998q0 0.12528 0.03549 0.18583 0.03758 0.05846 0.11484 0.05846 0.01879 0 0.0522-0.01044 0.03341-0.01253 0.09187-0.03758v0.30902q-0.08561 0.04802-0.16286 0.07099-0.07517 0.02297-0.14824 0.02297-0.14407 0-0.22967-0.08143-0.08561-0.08143-0.11692-0.24846-0.1044 0.16495-0.25682 0.24846-0.15033 0.08143-0.35495 0.08143-0.21297 0-0.3633-0.08143-0.14824-0.08143-0.23594-0.24429v1.1546z"/>
   <path d="m22.187 21.286-0.09187-0.48231q-0.09396-0.49484-0.46561-0.49484-0.27978 0-0.40715 0.22967-0.16077 0.28814-0.16077 0.66814 0 0.45935 0.1566 0.67858 0.15868 0.22341 0.41132 0.22341 0.27978 0 0.43012-0.44473zm0.21506-0.63891 0.20671-0.61177h0.34242l-0.42803 1.2674 0.08352 0.45726q0.01879 0.10231 0.09187 0.18792 0.08561 0.10022 0.15242 0.10022h0.18374v0.32572h-0.22967q-0.19627 0-0.37165-0.17539-0.08561-0.08769-0.1211-0.27143-0.09605 0.23176-0.29231 0.41341-0.09187 0.08561-0.39044 0.08561-0.49067 0-0.72869-0.31737-0.24429-0.32781-0.24429-0.90199 0-0.61385 0.26517-0.90199 0.2944-0.32154 0.70781-0.32154 0.64935 0 0.77254 0.66396z"/>
   <path d="m24.012 20.035v1.5138q0 0.30275 0.07099 0.3988 0.07517 0.10022 0.30066 0.10022h0.18583v0.32572h-0.23176q-0.37583 0-0.54704-0.20044-0.17121-0.20462-0.17121-0.64726l-0.0021-1.4908zm0.05429-0.90199h0.42385v0.42176h-0.42385zm-0.81638 0h0.42385v0.42176h-0.42385z"/>
   <path d="m26.783 19.666q-0.21297-0.14616-0.71199-0.14616-0.52825 0-0.52825 0.24429 0 0.19209 0.55122 0.29231 0.43429 0.07725 0.67858 0.3111 0.29649 0.28187 0.29649 0.86023 0 0.5533-0.28605 0.87902-0.28605 0.32781-0.78715 0.32781-0.49902 0-0.78715-0.32781-0.28605-0.32572-0.28605-0.8999 0-0.42594 0.28605-0.77045 0.11066-0.13363 0.26726-0.20879-0.32572-0.16495-0.32572-0.45935 0-0.56792 0.92078-0.56792 0.46144 0 0.71199 0.14616zm-1.0189 0.66605q-0.14198 0.06055-0.25682 0.21297-0.17956 0.23594-0.17956 0.66188 0 0.42385 0.17747 0.66188 0.17956 0.24011 0.49067 0.24011 0.30693 0 0.48649-0.2422t0.17956-0.63891q0-0.4155-0.19-0.61594-0.20253-0.21506-0.46561-0.23802-0.13363-0.01253-0.2422-0.04176z"/>
   <path d="m29.069 21.286-0.09187-0.48231q-0.09396-0.49484-0.46561-0.49484-0.27978 0-0.40715 0.22967-0.16077 0.28814-0.16077 0.66814 0 0.45935 0.1566 0.67858 0.15868 0.22341 0.41132 0.22341 0.27978 0 0.43012-0.44473zm0.21506-0.63891 0.20671-0.61177h0.34242l-0.42803 1.2674 0.08352 0.45726q0.01879 0.10231 0.09187 0.18792 0.08561 0.10022 0.15242 0.10022h0.18374v0.32572h-0.22967q-0.19627 0-0.37165-0.17539-0.08561-0.08769-0.1211-0.27143-0.09605 0.23176-0.29231 0.41341-0.09187 0.08561-0.39044 0.08561-0.49067 0-0.72869-0.31737-0.24429-0.32781-0.24429-0.90199 0-0.61385 0.26517-0.90199 0.2944-0.32154 0.70781-0.32154 0.64935 0 0.77254 0.66396z"/>
  </g>
  <g fill="#2c8dc0" stroke-width=".18158" aria-label="https://apps4net.eu">
   <path d="m121.57 19.267v2.3974h-0.65255v-2.3761q0-0.56389-0.21988-0.84406-0.21989-0.28017-0.65965-0.28017-0.52843 0-0.83343 0.33692-0.30499 0.33692-0.30499 0.91854v2.2449h-0.6561v-5.5183h0.6561v2.1634q0.23406-0.3582 0.5497-0.53552 0.31919-0.17732 0.73413-0.17732 0.68447 0 1.0356 0.42558 0.3511 0.42203 0.3511 1.2448z"/>
   <path d="m123.51 16.565v1.1278h1.3441v0.50715h-1.3441v2.1563q0 0.48587 0.13122 0.62418 0.13476 0.13831 0.54261 0.13831h0.67028v0.54616h-0.67028q-0.7554 0-1.0427-0.28017-0.28727-0.28372-0.28727-1.0285v-2.1563h-0.47877v-0.50715h0.47877v-1.1278z"/>
   <path d="m126.36 16.565v1.1278h1.3441v0.50715h-1.3441v2.1563q0 0.48587 0.13122 0.62418 0.13476 0.13831 0.54261 0.13831h0.67029v0.54616h-0.67029q-0.7554 0-1.0427-0.28017-0.28726-0.28372-0.28726-1.0285v-2.1563h-0.47878v-0.50715h0.47878v-1.1278z"/>
   <path d="m129.19 21.069v2.1066h-0.6561v-5.4829h0.6561v0.6029q0.2057-0.35465 0.51779-0.52488 0.31564-0.17378 0.75185-0.17378 0.72349 0 1.1739 0.57453 0.45395 0.57453 0.45395 1.5108t-0.45395 1.5108q-0.4504 0.57453-1.1739 0.57453-0.43621 0-0.75185-0.17023-0.31209-0.17378-0.51779-0.52843zm2.2201-1.3867q0-0.71994-0.2979-1.1278-0.29436-0.41139-0.81215-0.41139t-0.81569 0.41139q-0.29436 0.40785-0.29436 1.1278t0.29436 1.1313q0.2979 0.40785 0.81569 0.40785t0.81215-0.40785q0.2979-0.41139 0.2979-1.1313z"/>
   <path d="m135.71 17.81v0.61709q-0.27663-0.14186-0.57454-0.21279-0.2979-0.07093-0.61708-0.07093-0.48587 0-0.73058 0.14895-0.24116 0.14895-0.24116 0.44686 0 0.22698 0.17378 0.3582 0.17377 0.12767 0.69865 0.24471l0.22343 0.04965q0.69511 0.14895 0.98593 0.42203 0.29435 0.26953 0.29435 0.7554 0 0.55325-0.43976 0.87598-0.43622 0.32273-1.2023 0.32273-0.31918 0-0.66674-0.06384-0.34401-0.06029-0.72703-0.18442v-0.67383q0.36174 0.18796 0.71284 0.28372 0.35111 0.09221 0.69512 0.09221 0.46104 0 0.70929-0.15604 0.24826-0.15959 0.24826-0.44686 0-0.26599-0.18087-0.40785-0.17733-0.14186-0.78378-0.27308l-0.22697-0.0532q-0.60645-0.12767-0.87598-0.39011-0.26954-0.26599-0.26954-0.72703 0-0.56034 0.39721-0.86534 0.39721-0.305 1.1278-0.305 0.36174 0 0.68093 0.0532 0.31918 0.0532 0.58872 0.15959z"/>
   <path d="m137.12 20.764h0.74831v0.90081h-0.74831zm0-2.8549h0.74831v0.90081h-0.74831z"/>
   <path d="m140.56 16.37h0.60291l-1.8442 5.9687h-0.6029z"/>
   <path d="m143.01 16.37h0.60291l-1.8442 5.9687h-0.6029z"/>
   <path d="m146.1 19.668q-0.79087 0-1.0959 0.18087-0.305 0.18087-0.305 0.61709 0 0.34756 0.22697 0.55325 0.23052 0.20215 0.62419 0.20215 0.54261 0 0.86889-0.38302 0.32982-0.38657 0.32982-1.0249v-0.14541zm1.3016-0.26953v2.2662h-0.65255v-0.6029q-0.22343 0.36174-0.5568 0.53552-0.33337 0.17023-0.81569 0.17023-0.61 0-0.97174-0.34046-0.3582-0.34401-0.3582-0.91854 0-0.67029 0.44686-1.0107 0.45041-0.34046 1.3406-0.34046h0.915v-0.06384q0-0.4504-0.29791-0.69511-0.29436-0.24825-0.82987-0.24825-0.34047 0-0.6632 0.08157t-0.62063 0.24471v-0.6029q0.35819-0.13831 0.69511-0.2057 0.33691-0.07093 0.6561-0.07093 0.8618 0 1.2874 0.44686 0.42558 0.44686 0.42558 1.3548z"/>
   <path d="m149.38 21.069v2.1066h-0.6561v-5.4829h0.6561v0.6029q0.20569-0.35465 0.51778-0.52488 0.31564-0.17378 0.75186-0.17378 0.72348 0 1.1739 0.57453 0.45395 0.57453 0.45395 1.5108t-0.45395 1.5108q-0.45041 0.57453-1.1739 0.57453-0.43622 0-0.75186-0.17023-0.31209-0.17378-0.51778-0.52843zm2.2201-1.3867q0-0.71994-0.29791-1.1278-0.29435-0.41139-0.81214-0.41139t-0.81569 0.41139q-0.29436 0.40785-0.29436 1.1278t0.29436 1.1313q0.2979 0.40785 0.81569 0.40785t0.81214-0.40785q0.29791-0.41139 0.29791-1.1313z"/>
   <path d="m153.99 21.069v2.1066h-0.6561v-5.4829h0.6561v0.6029q0.2057-0.35465 0.51779-0.52488 0.31564-0.17378 0.75186-0.17378 0.72348 0 1.1739 0.57453 0.45395 0.57453 0.45395 1.5108t-0.45395 1.5108q-0.45041 0.57453-1.1739 0.57453-0.43622 0-0.75186-0.17023-0.31209-0.17378-0.51779-0.52843zm2.2201-1.3867q0-0.71994-0.29791-1.1278-0.29436-0.41139-0.81214-0.41139-0.51779 0-0.8157 0.41139-0.29436 0.40785-0.29436 1.1278t0.29436 1.1313q0.29791 0.40785 0.8157 0.40785 0.51778 0 0.81214-0.40785 0.29791-0.41139 0.29791-1.1313z"/>
   <path d="m160.5 17.81v0.61709q-0.27663-0.14186-0.57453-0.21279-0.29791-0.07093-0.61709-0.07093-0.48587 0-0.73058 0.14895-0.24116 0.14895-0.24116 0.44686 0 0.22698 0.17378 0.3582 0.17378 0.12767 0.69866 0.24471l0.22342 0.04965q0.69512 0.14895 0.98593 0.42203 0.29436 0.26953 0.29436 0.7554 0 0.55325-0.43977 0.87598-0.43622 0.32273-1.2023 0.32273-0.31918 0-0.66674-0.06384-0.34401-0.06029-0.72703-0.18442v-0.67383q0.36174 0.18796 0.71285 0.28372 0.3511 0.09221 0.69511 0.09221 0.46104 0 0.7093-0.15604 0.24825-0.15959 0.24825-0.44686 0-0.26599-0.18087-0.40785-0.17732-0.14186-0.78377-0.27308l-0.22698-0.0532q-0.60645-0.12767-0.87598-0.39011-0.26954-0.26599-0.26954-0.72703 0-0.56034 0.39721-0.86534 0.39721-0.305 1.1278-0.305 0.36175 0 0.68093 0.0532t0.58872 0.15959z"/>
   <path d="m163.81 16.994-1.8087 2.8266h1.8087zm-0.18797-0.62418h0.90081v3.4507h0.7554v0.59581h-0.7554v1.2484h-0.71284v-1.2484h-2.3903v-0.69156z"/>
   <path d="m169.68 19.267v2.3974h-0.65255v-2.3761q0-0.56389-0.21988-0.84406-0.21988-0.28017-0.65965-0.28017-0.52843 0-0.83342 0.33692-0.305 0.33692-0.305 0.91854v2.2449h-0.6561v-3.9721h0.6561v0.61709q0.23407-0.3582 0.5497-0.53552 0.31919-0.17732 0.73413-0.17732 0.68447 0 1.0356 0.42558 0.3511 0.42203 0.3511 1.2448z"/>
   <path d="m174.38 19.516v0.31918h-3.0003q0.0426 0.67383 0.4043 1.0285 0.36529 0.3511 1.0143 0.3511 0.37593 0 0.72703-0.09221 0.35465-0.09221 0.7022-0.27663v0.61709q-0.3511 0.14895-0.71993 0.22698-0.36884 0.07802-0.74831 0.07802-0.95046 0-1.5073-0.55325-0.55325-0.55325-0.55325-1.4966 0-0.97528 0.52488-1.5463 0.52842-0.57453 1.4221-0.57453 0.80151 0 1.2661 0.51779 0.46813 0.51424 0.46813 1.4009zm-0.65255-0.19151q-7e-3 -0.53552-0.30145-0.8547-0.29081-0.31918-0.77314-0.31918-0.54616 0-0.87598 0.30854-0.32628 0.30854-0.37593 0.86889z"/>
   <path d="m176.09 16.565v1.1278h1.3441v0.50715h-1.3441v2.1563q0 0.48587 0.13122 0.62418 0.13477 0.13831 0.54262 0.13831h0.67028v0.54616h-0.67028q-0.75541 0-1.0427-0.28017-0.28727-0.28372-0.28727-1.0285v-2.1563h-0.47877v-0.50715h0.47877v-1.1278z"/>
   <path d="m178.39 20.764h0.74831v0.90081h-0.74831z"/>
   <path d="m184 19.516v0.31918h-3.0003q0.0426 0.67383 0.4043 1.0285 0.36528 0.3511 1.0143 0.3511 0.37593 0 0.72703-0.09221 0.35465-0.09221 0.70221-0.27663v0.61709q-0.35111 0.14895-0.71994 0.22698-0.36884 0.07802-0.74831 0.07802-0.95046 0-1.5073-0.55325-0.55325-0.55325-0.55325-1.4966 0-0.97528 0.52488-1.5463 0.52843-0.57453 1.4221-0.57453 0.80151 0 1.2661 0.51779 0.46814 0.51424 0.46814 1.4009zm-0.65256-0.19151q-7e-3 -0.53552-0.30145-0.8547-0.29081-0.31918-0.77314-0.31918-0.54615 0-0.87598 0.30854-0.32627 0.30854-0.37593 0.86889z"/>
   <path d="m185 20.097v-2.4045h0.65255v2.3797q0 0.56389 0.21989 0.84761 0.21988 0.28017 0.65964 0.28017 0.52843 0 0.83343-0.33692 0.30854-0.33692 0.30854-0.91854v-2.252h0.65256v3.9721h-0.65256v-0.61q-0.23761 0.36174-0.55325 0.53907-0.31209 0.17378-0.72703 0.17378-0.68447 0-1.0391-0.42558t-0.35465-1.2448z"/>
  </g>
  <text fill="black" font-family="sans-serif" font-size="10.583px" style="line-height:1.25;shape-inside:url(#rect67);white-space:pre" xml:space="preserve"/>
 </g>
</svg>
