<?xml version="1.0" encoding="UTF-8" standalone="no"?>
<svg
   xmlns:dc="http://purl.org/dc/elements/1.1/"
   xmlns:cc="http://creativecommons.org/ns#"
   xmlns:rdf="http://www.w3.org/1999/02/22-rdf-syntax-ns#"
   xmlns:svg="http://www.w3.org/2000/svg"
   xmlns="http://www.w3.org/2000/svg"
   id="svg69"
   version="1.1"
   viewBox="0 0 176.22496 49.256073"
   height="49.256073mm"
   width="176.22496mm">
  <defs
     id="defs63" />
  <metadata
     id="metadata66">
    <rdf:RDF>
      <cc:Work
         rdf:about="">
        <dc:format>image/svg+xml</dc:format>
        <dc:type
           rdf:resource="http://purl.org/dc/dcmitype/StillImage" />
        <dc:title></dc:title>
      </cc:Work>
    </rdf:RDF>
  </metadata>
  <g
     transform="translate(-18.810067,-95.961687)"
     id="layer1">
    <g
       id="g172">
      <text
         xml:space="preserve"
         style="font-style:normal;font-variant:normal;font-weight:normal;font-stretch:normal;font-size:36.1746px;line-height:1.25;font-family:'Trebuchet MS';-inkscape-font-specification:'Trebuchet MS';fill:#470a77;fill-opacity:1;stroke:none;stroke-width:0.904367"
         x="58.093208"
         y="134.8936"
         id="text14"><tspan
           id="tspan12"
           x="58.093208"
           y="134.8936"
           style="font-style:normal;font-variant:normal;font-weight:normal;font-stretch:normal;font-family:'Trebuchet MS';-inkscape-font-specification:'Trebuchet MS';fill:#470a77;fill-opacity:1;stroke-width:0.904367">ordaia</tspan></text>
      <text
         xml:space="preserve"
         style="font-style:normal;font-variant:normal;font-weight:normal;font-stretch:normal;font-size:15.8648px;line-height:1.25;font-family:Verdana;-inkscape-font-specification:Verdana;fill:#9c9c68;fill-opacity:1;stroke:none;stroke-width:0.396621"
         x="148.42833"
         y="155.14523"
         id="text18"
         transform="scale(1.0712469,0.93349162)"><tspan
           id="tspan16"
           x="148.42833"
           y="155.14523"
           style="font-style:normal;font-variant:normal;font-weight:bold;font-stretch:normal;font-family:Verdana;-inkscape-font-specification:'Verdana Bold';fill:#9c9c68;fill-opacity:1;stroke-width:0.396621">info</tspan></text>
      <g
         style="fill:#470a77;fill-opacity:1"
         transform="matrix(-0.00599344,0,0,-0.00635318,65.314139,145.72351)"
         fill="#000000"
         stroke="none"
         id="g1043">
        <path
           style="fill:#470a77;fill-opacity:1"
           d="m 1857.9428,7276.1112 c -453,-252 -852,-590 -1179.99999,-998 -139,-174 -767.665631,-940.6331 -751.665631,-956.6331 3,-4 460.665631,403.6331 563.665631,455.6331 399,200 742.99999,292 1097.99999,292 182,-1 305,-18 455,-66 190,-61 298,-129 640,-407 248,-201 764,-601 772,-599 4,2 55,47 113,102 l 106,98 72,-59 c 40,-33 170,-139 289,-236 305,-249 367,-316 447,-489 81,-172 110,-383 78,-558 -9,-48 -115,-376 -243,-753 -125,-367 -224,-670 -221,-673 9,-9 223,15 331,37 419,85 860,357 1138,702 303,377 469,805 509,1309 28,363 -54,762 -231,1123 -122,249 -258,434 -461,630 -348,336 -780,555 -1274,647 -105,19 -156,22 -410,23 -171,1 -289,5 -288,11 2,15 192,72 320,96 159,30 510,33 678,5 806,-133 1472,-593 1873,-1294 157,-275 256,-568 309,-910 24,-158 24,-547 -1,-708 -83,-545 -320,-1028 -694,-1417 -222,-230 -456,-401 -737,-539 -347,-170 -657,-245 -1047,-256 l -207,-6 -117,-350 c -127,-382 -142,-453 -110,-516 27,-51.00004 89,-74.00004 216,-79.00004 58,-2 148,1 199,7 52,6 97,9 99,7 4,-5 -11,-54 -102,-337 l -67,-206 -57,-6 c -77,-8 -239,8 -331,33 -133,37 -217,84 -306,174 -91,92 -134,165 -164,276 -55,211.00004 -26,449.00004 105,836.00004 35,105 64,195 64,201 0,6 -33,18 -72,28 -304,72 -540,240 -658,466 -69,132 -85,209 -84,394 1,139 4,173 27,259 28,106 111,288 171,377 20,30 32,55 26,57 -6,2 -199,-33 -431,-78 -231,-45 -422,-80 -425,-78 -3,3 429,772 523,931 2,4 -2,7 -9,7 -7,0 -49,-42 -94,-93 -185,-211 -969,-1165 -963,-1171 2,-2 235,43 517,99 313,62 511,97 508,90 -2,-7 -17,-61 -33,-121 -26,-101 -28,-122 -27,-294 0,-159 3,-196 22,-265 26,-93 98,-248 148,-318 20,-27 34,-50 32,-51 -2,-2 -43,-8 -92,-15 -346,-47 -701,-213 -976,-455 C -1057.7119,-968.3694 2436.4602,2978.9559 2996.8311,91.934774 10064.29,-332.23465 8916.4055,10349.951 1857.9428,7276.1112 Z m 2240,-1191 c 304,-35 598,-144 861,-319 511,-340 796,-889 771,-1486 -17,-407 -160,-753 -426,-1028 -187,-193 -389,-331 -609,-413 -73,-28 -72,-28 -71,-11 0,6 32,37 70,67 192,150 396,404 492,610 211,454 194,1017 -43,1490 -281,559 -785,925 -1415,1025 -140,22 -147,24 -142,38 9,30 337,47 512,27 z"
           id="path1039" />
        <path
           style="fill:#470a77;fill-opacity:1"
           d="m 3814,3774 c 30,-175 33,-204 22,-212 -6,-5 -37,-24 -69,-42 l -59,-32 38,-39 c 60,-61 125,-89 206,-89 49,0 80,6 108,20 75,38 75,38 -85,241 -79,101 -150,186 -156,188 -8,2 -9,-8 -5,-35 z"
           id="path1041" />
      </g>
    </g>
  </g>
</svg>
